<svg width="452" height="449" viewBox="0 0 452 449" fill="none" xmlns="http://www.w3.org/2000/svg">
<path d="M225.923 257.706C217.825 257.706 209.728 254.614 203.554 248.443L9.27002 54.157C-3.08898 41.798 -3.08898 21.76 9.27002 9.406C21.624 -2.948 41.658 -2.948 54.018 9.406L225.923 181.321L397.829 9.41201C410.188 -2.94199 430.22 -2.94199 442.573 9.41201C454.938 21.766 454.938 41.804 442.573 54.163L248.292 248.449C242.115 254.621 234.018 257.706 225.923 257.706Z" fill="black"/>
<path d="M225.924 191.141C234.022 191.141 242.119 194.233 248.293 200.404L442.577 394.69C454.936 407.049 454.936 427.087 442.577 439.441C430.223 451.795 410.189 451.795 397.829 439.441L225.924 267.526L54.018 439.435C41.659 451.789 21.627 451.789 9.27399 439.435C-3.09101 427.081 -3.091 407.043 9.274 394.684L203.555 200.398C209.732 194.226 217.829 191.141 225.924 191.141Z" fill="black"/>
</svg>
