<svg width="126" height="165" viewBox="0 0 126 165" fill="none" xmlns="http://www.w3.org/2000/svg">
<path d="M1.49997 138C0.699966 142 0.833299 147.667 0.999966 150C1.66664 152.167 3.9 157.1 7.5 159.5C11.1 161.9 19.3333 163.833 23 164.5H32C35.6 164.5 41.5 162.167 44 161L50 158.5L53.5 155.5L63 146.5L70 139.5L80.5 128L85.5 121L94.5 106L101 94.5L104.5 86.5L109 77L116.5 59.5C118.833 53.8333 123.7 40.7 124.5 33.5C125.3 26.3 123.167 19.1667 122 16.5C121 14.5 115.5 8 111 5.5C106.5 3 105.5 2.5 97.5 1.5C91.1 0.699997 82.5 9.16666 79 13.5L75.5 19L72 26L69 31.5L66 36L62.5 42.5L58 50L53.5 58.5L49 67L45 73.5L41.5 79.5L37 85.5L33 91.5L29 96.5L24 102L17 110C14.6667 113.167 9.6 120.1 8 122.5C6 125.5 2.49997 133 1.49997 138Z" fill="#3E7A19" stroke="black"/>
<path d="M91.5 6.5C91.1 7.3 89.6667 8.5 89 9C89 9.16667 89.2 9.6 90 10C90.8 10.4 92 10.1667 92.5 10L95.5 8.5L97 8L98 7L99.5 6.5C99.5 6 99.4 5 99 5H97C96.3333 4.83333 94.8 4.5 94 4.5C93.2 4.5 92.6667 4.83333 92.5 5C92.3333 5.16667 91.9 5.7 91.5 6.5Z" fill="#99D72D"/>
<path d="M14.9999 121.5C15.7999 121.5 16.9999 120.5 17.4999 120C18.6999 119.2 18.3333 117.333 18 116.5C17.8333 116.333 17.2 116 16 116C14.5 116 14.4999 117 13.4999 117.5C12.6999 117.9 13.1666 119.333 13.4999 120C13.6666 120.5 14.1999 121.5 14.9999 121.5Z" fill="#254A0A"/>
<path d="M17.9999 116C16.8333 115.833 14.2999 115.9 13.4999 117.5C12.4999 119.5 13.4999 121 14.9999 122" stroke="#68A231" stroke-width="0.5" stroke-linecap="round"/>
<path d="M29.9417 116.562C30.7417 116.562 31.9417 115.562 32.4417 115.062C33.6417 114.262 33.2751 112.396 32.9418 111.562C32.7751 111.396 32.1418 111.062 30.9418 111.062C29.4418 111.062 29.4417 112.062 28.4417 112.562C27.6417 112.962 28.1084 114.396 28.4417 115.062C28.6084 115.562 29.1417 116.562 29.9417 116.562Z" fill="#254A0A"/>
<path d="M32.9417 111.062C31.775 110.896 29.2417 110.962 28.4417 112.562C27.4417 114.562 28.4417 116.062 29.9417 117.062" stroke="#68A231" stroke-width="0.5" stroke-linecap="round"/>
<path d="M59.9417 54.5623C60.7417 54.5623 61.9417 53.5623 62.4417 53.0623C63.6417 52.2623 63.2751 50.3956 62.9418 49.5623C62.7751 49.3956 62.1418 49.0623 60.9418 49.0623C59.4418 49.0623 59.4417 50.0623 58.4417 50.5623C57.6417 50.9623 58.1084 52.3956 58.4417 53.0623C58.6084 53.5623 59.1417 54.5623 59.9417 54.5623Z" fill="#254A0A"/>
<path d="M62.9417 49.0623C61.775 48.8956 59.2417 48.9623 58.4417 50.5623C57.4417 52.5623 58.4417 54.0623 59.9417 55.0623" stroke="#68A231" stroke-width="0.5" stroke-linecap="round"/>
<path d="M40.1795 90C40.6655 90 41.3944 89.2727 41.6982 88.9091C42.4271 88.3273 42.2044 86.9697 42.0019 86.3636C41.9007 86.2424 41.516 86 40.787 86C39.8758 86 39.8758 86.7273 39.2683 87.0909C38.7824 87.3818 39.0658 88.4242 39.2683 88.9091C39.3696 89.2727 39.6936 90 40.1795 90Z" fill="#254A0A"/>
<path d="M42.2 86.0411C41.4385 85.9311 39.7849 85.9751 39.2627 87.0308C38.61 88.3505 39.2627 89.3402 40.2418 90" stroke="#68A231" stroke-width="0.5" stroke-linecap="round"/>
<path d="M91.9173 90.7423C91.141 90.549 89.7349 91.2293 89.1289 91.5937C87.7711 92.08 87.6758 93.9799 87.7978 94.8691C87.9193 95.0711 88.4533 95.5476 89.6177 95.8376C91.0733 96.2001 91.315 95.2297 92.4062 94.9862C93.2791 94.7914 93.1726 93.2878 93.0103 92.5603C92.9694 92.0349 92.6935 90.9356 91.9173 90.7423Z" fill="#254A0A"/>
<path d="M87.6771 95.3543C88.7689 95.798 91.2433 96.3455 92.4063 94.9862C93.8599 93.2872 93.2521 91.59 92.0382 90.2571" stroke="#68A231" stroke-width="0.5" stroke-linecap="round"/>
<path d="M55.5717 137.289C54.7954 137.096 53.3893 137.776 52.7833 138.14C51.4256 138.627 51.3302 140.527 51.4522 141.416C51.5737 141.618 52.1077 142.094 53.2721 142.384C54.7277 142.747 54.9694 141.776 56.0606 141.533C56.9335 141.338 56.8271 139.834 56.6647 139.107C56.6238 138.582 56.348 137.482 55.5717 137.289Z" fill="#254A0A"/>
<path d="M51.3316 141.901C52.4234 142.345 54.8977 142.892 56.0607 141.533C57.5144 139.834 56.9065 138.137 55.6926 136.804" stroke="#68A231" stroke-width="0.5" stroke-linecap="round"/>
<path d="M24.5 123.5C22.5 126 18.2 131.8 17 135C15.8 138.2 16.8333 140.333 17.5 141C19.1 142.2 21.5 142.167 22.5 142L27.5 139.5L31.5 135.5L34.5 131.5L44.5 120.5L47.5 117L48.5 114.5L51 113L55.5 109.5L59.5 104L61 101L61.5 98L62.5 95.5L64 92.5L66.5 88L69 84.5L72 82L81.5 74.5L91.5 59L100 49L101 47L101.5 43.5L102 41C103.5 39.3333 106.9 34.9 108.5 30.5C110.1 26.1 109.833 21.6667 109.5 20C108.833 16.6667 106.9 9.8 104.5 9C102.1 8.2 97.1667 9.66667 95 10.5L89.5 14.5L86.5 18L78.5 29L73.5 33.5L69.5 38.5L68.5 44.5L67.5 51.5L65 62L63.5 65.5L61 71L60 75L55.5 80.5L52.5 85L50.5 87.5L47.5 91L44.5 95.5L42.5 100.5L39 107L35.5 111L30 117L24.5 123.5Z" fill="#5A9C1F"/>
<path d="M90.5 11.5C89.7 11.9 89.5 13 89.5 13.5C89.5 13.6667 89.8 14 91 14C92.5 14 97.5 14.5 98.5 14.5C99.5 14.5 103.5 17 104.5 18.5C105.3 19.7 106.5 21.6667 107 22.5C107.833 24.3333 109.6 27 110 23C110.5 18 102.5 13.5 100.5 12C98.5 10.5 91.5 11 90.5 11.5Z" fill="#AECEE2" stroke="black"/>
<path d="M84 19C82.4 19.8 81.6666 20.3333 81.5 20.5C80.8333 20.8333 79.4 22 79 24C78.5 26.5 79 27.5 79.5 30C79.9 32 83.3333 33.8333 85 34.5C86.1666 34.3333 88.7 34 89.5 34C90.3 34 92.8333 30.3333 94 28.5C94.1666 27.3333 94.4 24.7 94 23.5C93.6 22.3 90.1666 20 88.5 19C87.6666 18.6667 85.6 18.2 84 19Z" fill="#EDFED7" stroke="black"/>
<path d="M1.49997 138C0.699966 142 0.833299 147.667 0.999966 150C1.66664 152.167 3.9 157.1 7.5 159.5C11.1 161.9 19.3333 163.833 23 164.5H32C35.6 164.5 41.5 162.167 44 161L50 158.5L53.5 155.5L63 146.5L70 139.5L80.5 128L85.5 121L94.5 106L101 94.5L104.5 86.5L109 77L116.5 59.5C118.833 53.8333 123.7 40.7 124.5 33.5C125.3 26.3 123.167 19.1667 122 16.5C121 14.5 115.5 8 111 5.5C106.5 3 105.5 2.5 97.5 1.5C91.1 0.699997 82.5 9.16666 79 13.5L75.5 19L72 26L69 31.5L66 36L62.5 42.5L58 50L53.5 58.5L49 67L45 73.5L41.5 79.5L37 85.5L33 91.5L29 96.5L24 102L17 110C14.6667 113.167 9.6 120.1 8 122.5C6 125.5 2.49997 133 1.49997 138Z" stroke="black"/>
<path d="M84.4385 25.33C84.4385 25.1332 84.4522 24.9356 84.4522 24.7416C84.4522 24.6153 84.523 24.6108 84.6237 24.5549C84.6754 24.5261 84.8623 24.5347 84.9255 24.5488C85.0304 24.5721 85.1188 24.604 85.2128 24.6638C85.2664 24.6979 85.3384 24.692 85.3851 24.7401C85.4345 24.791 85.426 24.8708 85.4567 24.9321C85.4942 25.0071 85.4674 25.1359 85.4674 25.2202C85.4674 25.328 85.3757 25.33 85.2921 25.33C85.2242 25.33 85.251 25.3838 85.2479 25.4397C85.2467 25.4603 85.2211 25.4526 85.2067 25.4534C85.1849 25.4547 85.1989 25.4992 85.1793 25.4915C85.1058 25.463 85.1381 25.4434 85.1381 25.5083" stroke="black" stroke-linecap="round" stroke-linejoin="round"/>
<path d="M95.0617 27.4894C94.8878 27.6317 94.652 27.6823 94.5311 27.8729C94.5311 28.2262 94.0439 28.5914 93.8782 28.886C93.8315 28.9689 93.76 29.0109 93.7146 29.0991C93.6723 29.1813 93.6315 29.2664 93.5799 29.3437C93.5042 29.4573 93.4358 29.6163 93.3187 29.6915C93.2375 29.7437 93.2518 29.8348 93.1936 29.8881C92.8618 30.1923 92.5655 30.6823 92.4335 31.1142C92.38 31.2891 92.3264 31.4713 92.2685 31.6448C92.2016 31.8455 92.1311 32.0635 92.1311 32.2772V33.7384C92.1311 34.267 92.1226 34.7707 92.2795 35.2807C92.3406 35.4791 92.4068 35.683 92.4527 35.8897C92.493 36.0707 92.5143 36.2628 92.6452 36.4038C92.7361 36.5017 92.7856 36.6184 92.883 36.7158L93.1208 36.9536C93.289 37.1218 93.4795 37.2916 93.6211 37.4842C93.6989 37.5899 93.7969 37.6787 93.8741 37.7839C93.9179 37.8437 93.9242 37.9143 93.9868 37.9626C94.0423 38.0054 94.0874 38.0266 94.1297 38.0863C94.2548 38.2626 94.4408 38.3892 94.5655 38.5619C94.6032 38.6141 94.6318 38.6626 94.6782 38.709C94.7827 38.8134 94.9184 38.9208 94.9999 39.043C95.0521 39.1213 95.1877 39.2577 95.2734 39.3042C95.3901 39.3676 95.4375 39.4684 95.5401 39.5406C95.7273 39.6724 95.8948 39.8344 96.0899 39.9599C96.2568 40.0671 96.4642 40.1705 96.5999 40.3063C96.7216 40.4279 96.9239 40.543 97.0769 40.6211C97.2485 40.7085 97.3807 40.8191 97.5374 40.9276C97.7516 41.0759 97.9619 41.2059 98.2178 41.2781C98.7921 41.4401 99.454 41.3579 100.047 41.3579H101.274C101.498 41.3579 101.717 41.3457 101.939 41.3334L101.943 41.3331C102.128 41.3229 102.312 41.2103 102.487 41.164C102.628 41.1269 102.765 41.0895 102.904 41.0472C103.066 40.9977 103.268 40.9136 103.408 40.8135C103.481 40.7616 103.588 40.6588 103.649 40.5908C103.692 40.5431 103.789 40.5032 103.85 40.4795C104 40.4207 104.135 40.3279 104.285 40.2692C104.452 40.2039 104.589 40.1116 104.749 40.0382C104.86 39.9871 104.982 39.964 105.091 39.898C105.164 39.8537 105.253 39.8587 105.319 39.799C105.411 39.7167 105.522 39.6416 105.617 39.564C105.716 39.4835 105.772 39.4056 105.84 39.3042C105.934 39.1628 106.036 39.0126 106.155 38.8891C106.223 38.8187 106.241 38.7041 106.296 38.6238C106.361 38.531 106.432 38.4398 106.482 38.3392C106.516 38.2719 106.55 38.2387 106.606 38.1894C106.664 38.1372 106.681 38.0665 106.729 38.0079C106.814 37.9058 106.903 37.8167 106.978 37.7083C107.176 37.4236 107.406 37.1695 107.59 36.8711C107.671 36.7402 107.807 36.6625 107.88 36.522C107.942 36.403 108.045 36.314 108.103 36.1852C108.159 36.0603 108.259 35.9429 108.283 35.8044C108.311 35.6423 108.338 35.4603 108.338 35.2958C108.338 35.0958 108.387 34.903 108.387 34.702V34.2759C108.387 33.5275 108.291 32.8429 108.016 32.148C107.891 31.831 107.856 31.504 107.749 31.183C107.678 30.9685 107.636 30.7586 107.582 30.541C107.521 30.3001 107.436 30.0675 107.373 29.829C107.329 29.6646 107.19 29.5313 107.12 29.3767C107.052 29.2263 106.953 29.0725 106.859 28.9369C106.765 28.8022 106.702 28.6429 106.581 28.5286C106.462 28.4162 106.344 28.2676 106.248 28.1341C106.156 28.0043 106 27.9292 105.888 27.8234C105.77 27.712 105.631 27.5431 105.491 27.466C105.261 27.3393 105.05 27.2092 104.805 27.1059C104.524 26.9872 104.259 26.847 103.958 26.7718C103.821 26.7376 103.678 26.7215 103.543 26.6797C103.426 26.6434 103.302 26.678 103.186 26.6358C103.007 26.5713 102.82 26.5465 102.634 26.5107C102.439 26.4729 102.256 26.3662 102.064 26.3141C101.918 26.2744 101.783 26.2057 101.632 26.189C101.503 26.1746 101.38 26.1656 101.249 26.1656H99.4811H98.4075C98.1823 26.1656 97.9423 26.1858 97.734 26.2784C97.6186 26.3296 97.4745 26.3317 97.3532 26.3883C97.2668 26.4286 97.1774 26.4603 97.0907 26.4997C96.9992 26.5412 96.9063 26.5241 96.813 26.5863C96.7373 26.6367 96.6539 26.6494 96.5683 26.6852C96.3725 26.7672 96.1735 26.8301 95.9772 26.9217C95.829 26.9908 95.5786 27.0009 95.4714 27.1499C95.3696 27.2912 95.1912 27.3835 95.0617 27.4894Z" fill="#EDFED7" stroke="black" stroke-linecap="round" stroke-linejoin="round"/>
<path d="M99.8508 33.3659C100.111 33.2626 100.347 33.1315 100.544 32.9452C100.677 32.8184 100.886 32.7204 101.074 32.8229C101.312 32.9524 100.745 33.3965 100.698 33.5336C100.672 33.6081 100.686 33.7425 100.707 33.8126C100.74 33.9231 100.839 34.0234 100.92 34.1027C100.965 34.1463 101.036 34.1671 101.073 34.2181C101.091 34.2435 100.964 34.2207 100.953 34.2167C100.884 34.1919 100.804 34.1295 100.747 34.0834C100.648 34.0027 100.661 33.8498 100.556 33.7769C100.481 33.7249 100.269 33.7601 100.183 33.7618C100.061 33.7641 100.021 33.9 99.9251 33.9542C99.7904 34.0299 100.164 33.7571 100.296 33.6765C100.37 33.6316 100.416 33.5638 100.508 33.5638C100.734 33.5638 100.961 33.5638 101.187 33.5638" stroke="black" stroke-linecap="round" stroke-linejoin="round"/>
<path d="M87.7805 34.4478C87.7261 34.5873 87.6922 34.6508 87.6015 34.7617C87.5521 34.822 87.5628 34.9144 87.5073 34.9721C87.378 35.1066 87.1964 35.1724 87.0643 35.297C86.937 35.417 86.8155 35.5264 86.684 35.6441C86.6084 35.7117 86.4775 35.7821 86.444 35.8693C86.3445 36.1279 86.0888 36.3099 85.9935 36.5671C85.9562 36.6679 85.9122 36.6854 85.8403 36.7573C85.7815 36.816 85.7752 36.9151 85.7203 36.9733C85.627 37.072 85.5159 37.1724 85.4213 37.2723C84.9132 37.8087 84.4974 38.4763 84.3321 39.1996C84.2008 39.774 84.2582 40.4014 84.2582 40.994C84.2582 41.1196 84.2598 41.2974 84.3912 41.3669C84.5552 41.4538 84.7282 41.4789 84.8896 41.5515C85.1477 41.6677 85.4323 41.6918 85.7129 41.6918C85.8048 41.6918 85.9125 41.7085 85.9991 41.6752C86.0631 41.6506 86.099 41.5896 86.1597 41.5663C86.3186 41.5052 86.4647 41.4934 86.6101 41.3927C86.8705 41.2125 87.151 41.0116 87.4409 40.8943C87.6073 40.8269 87.7268 40.6831 87.9061 40.6211C88.0133 40.584 88.1284 40.4983 88.1941 40.4291C88.4166 40.1942 88.7283 40.0428 88.9362 39.7977C89.0601 39.6517 89.3057 39.5096 89.4752 39.4248C89.6088 39.358 89.6813 39.2221 89.8075 39.159C89.9552 39.0852 90.0759 38.9553 90.1989 38.8415C90.2785 38.7677 90.4032 38.7084 90.4389 38.6015" stroke="black" stroke-linecap="round" stroke-linejoin="round"/>
<path d="M93.6898 41.3826C93.7547 41.4682 93.8872 41.5535 93.9372 41.641C93.966 41.6913 94.0827 41.7037 94.1105 41.7661C94.1477 41.85 94.2182 41.8519 94.2837 41.883C94.3633 41.9207 94.4446 41.9889 94.5063 42.0507C94.5664 42.1107 94.6305 42.1501 94.6919 42.2115C94.7555 42.2751 94.841 42.3459 94.8899 42.4218C94.9816 42.5645 95.212 42.6736 95.36 42.7558C95.4214 42.7899 95.503 42.8015 95.5703 42.8369C95.6502 42.879 95.7153 42.9422 95.793 42.9854C95.9211 43.0566 96.0646 43.2218 96.2136 43.2383C96.2995 43.2479 96.3658 43.367 96.4487 43.3854C96.5512 43.4082 96.6554 43.465 96.7442 43.5215C96.9281 43.6385 97.1331 43.661 97.327 43.7579C97.3921 43.7905 97.455 43.8087 97.525 43.8267C97.5823 43.8414 97.5999 43.8778 97.6487 43.9009C97.6981 43.9243 97.7399 43.9123 97.7917 43.9449C97.8353 43.9724 97.896 43.9867 97.9456 43.9999C98.0458 44.0264 98.1248 44.0616 98.2315 44.081C98.3326 44.0993 98.4208 44.1043 98.5257 44.1043C98.8172 44.1043 99.0869 44.228 99.3807 44.228C99.6776 44.228 99.9745 44.228 100.271 44.228C100.63 44.228 100.989 44.228 101.348 44.228C101.46 44.228 101.571 44.228 101.683 44.228C101.828 44.228 101.91 44.1539 102.039 44.1304C102.123 44.1153 102.211 44.0663 102.276 44.0054C102.357 43.9278 102.451 43.8886 102.548 43.8377C102.637 43.7908 102.726 43.7023 102.82 43.6782C102.893 43.6595 103.03 43.6846 103.067 43.6095" stroke="black" stroke-linecap="round" stroke-linejoin="round"/>
<path d="M78.077 30.4462C78.2048 30.6569 78.2255 30.7735 78.2255 31.0029C78.2255 31.1666 78.2222 31.3347 78.2887 31.4868C78.3214 31.5615 78.3699 31.6334 78.4124 31.7026C78.4496 31.763 78.4368 31.8358 78.4853 31.895C78.5297 31.9493 78.5257 32.0272 78.5719 32.0792C78.5994 32.1102 78.6384 32.1766 78.6447 32.2181C78.6712 32.3903 78.7867 32.5087 78.8564 32.6621C78.94 32.8459 79.0289 32.9881 79.1657 33.1445C79.2681 33.2616 79.3899 33.3899 79.4764 33.5157C79.5599 33.6372 79.7005 33.8214 79.8228 33.8992C79.9199 33.961 79.9902 34.0538 80.0922 34.1081C80.1879 34.1592 80.2293 34.2702 80.3286 34.3198C80.3739 34.3425 80.4707 34.3562 80.5032 34.3941C80.5641 34.4651 80.6725 34.5469 80.763 34.5728C80.8944 34.6103 81.0086 34.7308 81.1314 34.7955C81.2843 34.8759 81.4312 34.9632 81.596 35.0181C81.6823 35.0469 81.768 35.0496 81.8517 35.0855C81.951 35.1281 82.0482 35.192 82.1541 35.2161C82.3158 35.2528 82.4629 35.2909 82.6297 35.2958C82.8844 35.3033 83.1107 35.469 83.372 35.469" stroke="black" stroke-linecap="round" stroke-linejoin="round"/>
<path d="M100.5 47C101.667 49.1667 103.5 54.1 101.5 56.5C99 59.5 98.5 60.5 92 61" stroke="black"/>
<path d="M80.5 36.5C79.5 35.6667 77.1 34 75.5 34C73.5 34 72 34.5 71 35.5C70 36.5 68.5 40.5 68.5 42C68.5 43.5 70 48.5 75.5 53" stroke="black"/>
<path d="M90 45L85.5 44.5L84 43.5L82 41.5L78.5 37.5L76 36H74L71.5 38L71 40V43.5L72 46L74 50L78.5 53.5L84 57L89 58.5L92.5 59L96.5 58.5L98.5 57L100 55L100.5 52.5L99.5 50L97.5 47.5L94 45.5L90 45Z" fill="#0D1806"/>
<path d="M77.5158 37.4239C77.5918 37.3309 77.7054 37.2744 77.7711 37.1693C77.8538 37.2521 78.2528 37.5344 78.3473 37.6053C78.4275 37.6655 78.483 37.7563 78.5538 37.8271C78.5967 37.8699 78.6542 37.9407 78.704 37.9711C78.7732 38.0134 78.8386 38.1032 78.8899 38.1678C78.9497 38.2429 79.0222 38.3122 79.0911 38.3796C79.1879 38.4743 79.3195 38.5464 79.4372 38.6106C79.4986 38.6441 79.5537 38.7533 79.5926 38.8064C79.6276 38.8542 79.6873 38.8996 79.6917 38.9635C79.6931 38.983 79.665 39.0167 79.6574 39.0351C79.5985 39.1792 79.5117 39.304 79.3869 39.3918C79.2277 39.5038 78.995 39.5839 78.8 39.5839C78.5551 39.5839 78.2982 39.6052 78.0546 39.5808C77.854 39.5607 77.6545 39.4907 77.4799 39.3918C77.337 39.3108 77.2052 39.239 77.121 39.0892C76.9973 38.8693 77.0237 38.5062 77.0714 38.2676C77.1149 38.0505 77.2187 37.8582 77.3321 37.6739C77.3868 37.5849 77.4473 37.5076 77.5158 37.4239Z" fill="#FFFDFE" stroke="black" stroke-width="0.3" stroke-linecap="round" stroke-linejoin="round"/>
<path d="M81.6177 41.8208C81.7168 41.7518 81.8007 41.6433 81.8867 41.5594C81.8867 41.5321 81.8247 41.2974 81.8013 41.288C81.7473 41.2664 81.719 41.2011 81.6779 41.1585C81.5461 41.0216 81.442 40.8615 81.3105 40.7225C81.1466 40.5492 80.9837 40.3758 80.8197 40.2042C80.7555 40.1371 80.677 40.0776 80.6185 40.0061C80.552 39.9249 80.4641 39.8491 80.4051 39.7652C80.3391 39.6714 80.251 39.6021 80.1718 39.5229C80.1305 39.4816 80.0893 39.4335 80.0491 39.3903C80.0201 39.359 80.0031 39.2929 79.9523 39.2958C79.8971 39.2988 79.8678 39.3764 79.8258 39.4055C79.7755 39.4403 79.7753 39.5155 79.7161 39.5396C79.6703 39.5583 79.6448 39.5924 79.6086 39.625C79.5674 39.6621 79.5252 39.6806 79.4859 39.721C79.42 39.7888 79.3222 39.8009 79.2634 39.8719C79.1894 39.9611 79.0943 40.0269 79.0362 40.1326C78.9839 40.228 78.9055 40.3231 78.8952 40.4359C78.883 40.5701 78.8197 40.707 78.7931 40.8399C78.7709 40.9509 78.7862 41.0759 78.7862 41.189C78.7862 41.2647 78.7734 41.3551 78.787 41.4298C78.8006 41.5044 78.8282 41.5489 78.8609 41.6142C78.9288 41.75 79.0721 41.8452 79.178 41.9511C79.2441 42.0172 79.314 42.0637 79.3761 42.1348C79.4181 42.1828 79.4933 42.2765 79.5621 42.2857C79.6517 42.2976 79.7243 42.3579 79.8152 42.368C79.9067 42.3782 80.0043 42.3688 80.0964 42.3688C80.3372 42.3688 80.5732 42.297 80.8105 42.259C80.8889 42.2465 80.9624 42.1741 81.043 42.1493C81.1171 42.1265 81.2318 42.0539 81.2907 42.0045C81.3905 41.9206 81.5113 41.8947 81.6177 41.8208Z" fill="#FFFDFE" stroke="black" stroke-width="0.3" stroke-linecap="round" stroke-linejoin="round"/>
<path d="M83.8543 44.2411C83.958 44.1078 84.249 43.9331 84.3588 43.8048C84.3465 43.7925 84.3465 43.7768 84.3366 43.7628C84.3203 43.7396 84.3087 43.7148 84.2958 43.6894C84.2632 43.6249 84.2207 43.556 84.1699 43.5052C84.1342 43.4694 84.0988 43.4335 84.0647 43.3962C84.0414 43.3706 84.0105 43.3541 83.9863 43.3291C83.9559 43.2977 83.9277 43.2661 83.8939 43.2379C83.8588 43.2086 83.8205 43.1846 83.7841 43.1572C83.7331 43.1188 83.6859 43.0776 83.6319 43.0432C83.5527 42.9928 83.4791 42.9369 83.3976 42.8896C83.3103 42.839 83.2285 42.7783 83.1458 42.7206C83.0608 42.6613 82.9728 42.6063 82.8888 42.5457C82.6504 42.3739 82.4146 42.1933 82.2012 41.9914C82.1365 41.9301 82.07 41.8702 82.0121 41.8023C81.9972 41.7848 81.9866 41.7832 81.9666 41.7932C81.9455 41.8038 81.9243 41.8019 81.9013 41.8072C81.7633 41.8391 81.664 41.9569 81.5834 42.0657C81.559 42.0986 81.5315 42.1316 81.5026 42.1604C81.4788 42.1843 81.466 42.2158 81.4414 42.2394L81.4376 42.2431C81.361 42.3168 81.2836 42.3912 81.2135 42.4711C81.0428 42.666 80.8731 42.873 80.8023 43.128C80.7625 43.2712 80.7335 43.4171 80.7035 43.5623C80.6823 43.665 80.6918 43.7755 80.6918 43.8797C80.6918 44.0508 80.704 44.2284 80.7297 44.3976C80.75 44.531 80.7992 44.6577 80.8137 44.791C80.8206 44.8548 80.8521 44.9141 80.8714 44.9746C80.8861 45.0208 80.8969 45.0765 80.9206 45.1189C80.9411 45.1555 80.961 45.196 80.9909 45.2259C81.0237 45.2587 81.063 45.2863 81.101 45.3127C81.1326 45.3346 81.1727 45.3458 81.208 45.3605C81.2528 45.3792 81.3013 45.3894 81.3476 45.4036C81.4871 45.4464 81.629 45.4363 81.7737 45.4363C81.8998 45.4363 82.0164 45.4068 82.14 45.3862C82.2043 45.3754 82.2677 45.3535 82.3306 45.3366C82.3648 45.3274 82.3983 45.3159 82.4324 45.3063C82.4768 45.2938 82.523 45.289 82.5664 45.2728C82.6439 45.2438 82.7181 45.2067 82.7917 45.1693C82.8366 45.1465 82.8834 45.1286 82.9266 45.1029C82.9994 45.0595 83.0482 44.9983 83.0998 44.9327C83.1417 44.8792 83.1933 44.8314 83.2388 44.7808C83.3011 44.7116 83.3845 44.6548 83.4611 44.6025L83.462 44.6019C83.5362 44.5513 83.6074 44.5005 83.6757 44.4419C83.7434 44.3836 83.7977 44.3138 83.8524 44.2435L83.8543 44.2411Z" fill="#FFFDFE" stroke="black" stroke-width="0.3" stroke-linecap="round" stroke-linejoin="round"/>
<path d="M86.1732 45.526C86.2761 45.3612 86.2538 45.3257 86.3736 45.1722C86.3508 45.1646 86.3317 45.1513 86.3102 45.1405C86.2812 45.126 86.2444 45.1217 86.219 45.1013C86.1694 45.0617 86.1052 45.0351 86.0499 45.0031C85.9379 44.9382 85.8314 44.8532 85.7262 44.778C85.4826 44.6041 85.2181 44.4586 84.9543 44.3181L84.9512 44.3165C84.7558 44.2124 84.5455 44.1004 84.3774 43.9534C84.3387 43.9195 84.3397 43.9302 84.3023 43.9588C84.2632 43.9887 84.2125 43.9868 84.17 44.0097C84.0761 44.0604 83.983 44.1108 83.8901 44.1647C83.7811 44.228 83.7135 44.3205 83.6541 44.4293C83.5751 44.5742 83.5396 44.7363 83.4983 44.8947C83.4675 45.0128 83.4434 45.1301 83.4185 45.2497C83.3919 45.3772 83.3864 45.4997 83.3864 45.6293C83.3864 45.8337 83.3811 46.0388 83.3864 46.2431C83.3881 46.3079 83.4124 46.3793 83.4341 46.4403C83.4558 46.5012 83.4727 46.5367 83.5148 46.5851C83.5999 46.6832 83.716 46.7611 83.8373 46.8035C83.9821 46.8542 84.1096 46.9043 84.2655 46.9151C84.4179 46.9256 84.5741 46.922 84.7266 46.9159C84.9233 46.908 85.136 46.8672 85.3113 46.7699C85.3809 46.7312 85.4534 46.6938 85.5031 46.6305C85.5596 46.5587 85.6048 46.4843 85.6534 46.4067C85.7577 46.2402 85.8529 46.0733 85.9477 45.901C86.0179 45.7734 86.096 45.6495 86.1732 45.526Z" fill="#FFFDFE" stroke="black" stroke-width="0.3" stroke-linecap="round" stroke-linejoin="round"/>
<path d="M89.695 45.4254C89.7139 45.3423 89.739 45.1101 89.7412 45.0242C89.7134 45.015 89.7026 44.9842 89.6777 44.9718C89.6445 44.9552 89.6088 44.9418 89.5752 44.9256C89.5298 44.9037 89.484 44.9045 89.4351 44.9045C89.3491 44.9045 89.2656 44.899 89.1807 44.8849C88.9597 44.8481 88.7388 44.859 88.5157 44.8481C88.3234 44.8387 88.1333 44.827 87.9407 44.827H87.2346H86.9438C86.8848 44.827 86.8254 44.825 86.7665 44.8285C86.7301 44.8307 86.6797 44.8259 86.6456 44.8411C86.6267 44.8494 86.645 44.9765 86.6499 44.996C86.6633 45.0497 86.6808 45.0961 86.6839 45.1526C86.6879 45.2235 86.6992 45.2952 86.7082 45.3655C86.7164 45.4299 86.7321 45.4924 86.743 45.5561C86.7572 45.6389 86.7603 45.7254 86.779 45.807C86.8069 45.9289 86.8562 46.043 86.8808 46.1656C86.9 46.2613 86.9239 46.3566 86.9399 46.4528C86.9538 46.5366 86.965 46.6207 86.988 46.7026C87.0121 46.7882 87.0342 46.8764 87.0679 46.9589C87.0987 47.0346 87.1529 47.1016 87.1912 47.1734C87.2374 47.2601 87.2935 47.3314 87.3708 47.3938C87.4159 47.4301 87.4907 47.4478 87.5466 47.461L87.5501 47.4619C87.7794 47.5162 88.0566 47.4915 88.2632 47.3777C88.4548 47.2722 88.606 47.1213 88.7462 46.9562C88.8175 46.8723 88.884 46.7893 88.9494 46.701C88.9755 46.6657 89.0048 46.6328 89.028 46.5953C89.048 46.563 89.0548 46.5263 89.0726 46.4936C89.1247 46.398 89.1922 46.3115 89.2535 46.2219C89.2845 46.1765 89.2969 46.1247 89.3231 46.0775C89.3529 46.0238 89.3947 45.9769 89.4265 45.9245C89.4901 45.8194 89.5589 45.7241 89.6096 45.6121C89.6376 45.5505 89.6799 45.4917 89.695 45.4254Z" fill="#FFFDFE" stroke="black" stroke-width="0.3" stroke-linecap="round" stroke-linejoin="round"/>
<path d="M92.621 45.6121C92.7407 45.6748 92.968 45.7013 93.0812 45.7773C93.0677 45.8045 93.0386 45.823 93.0233 45.8536C92.9995 45.9012 92.9586 45.9467 92.9231 45.9856C92.7653 46.1583 92.668 46.38 92.5341 46.5729C92.4493 46.6951 92.3896 46.8307 92.3033 46.952C92.2263 47.0602 92.1253 47.1413 92.0365 47.2386C91.8978 47.3904 91.7104 47.4681 91.5296 47.5534C91.321 47.6519 91.0392 47.6706 90.8117 47.6381C90.5694 47.6035 90.4104 47.4367 90.2632 47.2527C90.1293 47.0853 90.0631 46.8573 89.9963 46.6569C89.9583 46.5427 89.936 46.4241 89.8975 46.3096C89.8655 46.2145 89.8239 46.1228 89.8029 46.0244C89.7572 45.8102 89.7696 45.5915 89.7203 45.3778C89.7098 45.3324 89.6289 45.0658 89.6893 45.0658C89.8039 45.0658 89.9063 45.075 90.0175 45.0883C90.2422 45.1153 90.4815 45.0888 90.7079 45.0912C90.8642 45.0928 91.0144 45.1305 91.1668 45.1596C91.2555 45.1766 91.3499 45.1681 91.4364 45.1928C91.5184 45.2162 91.6149 45.2213 91.6997 45.2309C91.7809 45.2402 91.8512 45.2749 91.9249 45.3072C92.0485 45.3612 92.1795 45.4005 92.3005 45.4568C92.4083 45.507 92.5155 45.557 92.621 45.6121Z" fill="#FFFDFE" stroke="black" stroke-width="0.3" stroke-linecap="round" stroke-linejoin="round"/>
<path d="M93.5001 45.689L93.4892 45.6865C93.4892 45.716 93.2802 46.0206 93.2743 46.0497C93.2502 46.1707 93.2526 46.2932 93.2231 46.4137C93.2078 46.476 93.2145 46.5442 93.2145 46.6078C93.2145 46.6544 93.2129 46.7012 93.2184 46.7476C93.2274 46.8237 93.2592 46.8893 93.2904 46.9585C93.3153 47.0139 93.3386 47.0733 93.3742 47.1229C93.4347 47.2074 93.5614 47.2561 93.6528 47.2959C93.7631 47.344 93.8769 47.3857 93.9894 47.4282C94.1059 47.4721 94.2351 47.5416 94.3597 47.5574C94.4521 47.5691 94.551 47.5612 94.6439 47.5605C94.7806 47.5594 94.9218 47.5543 95.0572 47.5347C95.1668 47.5188 95.2812 47.5041 95.3789 47.4494C95.44 47.4151 95.5014 47.3829 95.5605 47.3452C95.6557 47.2845 95.7847 47.2167 95.8431 47.1159C95.8689 47.0714 95.8685 46.9639 95.8416 46.919C95.7952 46.8418 95.7507 46.763 95.6858 46.6994C95.6273 46.6422 95.5643 46.5878 95.4987 46.539C95.4327 46.4898 95.37 46.4263 95.3135 46.3663C95.236 46.284 95.1509 46.2176 95.0568 46.1554C94.9561 46.0888 94.8591 46.0308 94.7448 45.9894C94.664 45.9602 94.5834 45.9297 94.5018 45.9025C94.3999 45.8686 94.2896 45.8584 94.1847 45.8383C93.9552 45.7943 93.7277 45.7417 93.5001 45.689Z" fill="#FFFDFE" stroke="black" stroke-width="0.3" stroke-linecap="round" stroke-linejoin="round"/>
<path d="M73.1907 46.7122C73.0057 46.7122 72.8549 46.731 72.6839 46.8068C72.6944 46.8277 72.627 47.2068 72.644 47.2252C72.6725 47.256 72.6836 47.3117 72.705 47.3482C72.7875 47.4887 72.9321 47.592 73.0572 47.6914C73.1304 47.7496 73.1988 47.8301 73.2616 47.8996C73.317 47.9609 73.3798 48.016 73.4335 48.0788C73.5064 48.1642 73.5882 48.2429 73.6564 48.3322C73.7266 48.4241 73.7839 48.5242 73.8435 48.6229C74.0073 48.8939 74.1799 49.1593 74.3734 49.4098C74.4486 49.5071 74.5303 49.6075 74.5931 49.7136C74.6144 49.7496 74.621 49.8209 74.6704 49.7777C74.7204 49.7339 74.7598 49.6925 74.7991 49.6379C74.8235 49.6041 74.8448 49.5712 74.8785 49.5459C75.0071 49.4495 74.9831 49.2217 74.9831 49.0833C74.9831 48.9821 74.9883 48.8793 74.9784 48.7785C74.9627 48.6185 74.9247 48.4641 74.8906 48.307C74.8673 48.1998 74.8175 48.0972 74.7781 47.9947C74.7347 47.8818 74.6698 47.7825 74.6236 47.672C74.5758 47.5578 74.5176 47.4637 74.4217 47.385C74.3643 47.3379 74.3336 47.2746 74.2903 47.2157C74.1954 47.0864 74.0489 46.9812 73.9234 46.8835C73.87 46.842 73.7824 46.8276 73.7205 46.7978C73.6676 46.7725 73.6044 46.7676 73.5492 46.7479C73.434 46.7068 73.3118 46.7122 73.1907 46.7122Z" fill="#FFFBFF" stroke="black" stroke-width="0.3" stroke-linecap="round" stroke-linejoin="round"/>
<path d="M77.0455 50.1103C77.0275 50.7464 76.9288 51.3782 76.7151 51.9782C76.6505 51.9566 76.3685 51.8765 76.3021 51.8765C76.2652 51.8765 76.1848 51.7217 76.163 51.6923C75.9638 51.4226 75.7773 51.1343 75.5517 50.8854C75.3711 50.6861 75.205 50.4706 75.0498 50.2501C74.9835 50.1558 74.9112 50.0665 74.8472 49.9705C74.8265 49.9394 74.8009 49.9151 74.8098 49.8752C74.8157 49.8485 74.8411 49.8112 74.8571 49.7898C74.8818 49.7568 74.8776 49.6858 74.891 49.6458C74.9074 49.5966 74.9131 49.5389 74.9263 49.4877C74.9364 49.4482 74.9624 49.4162 74.9799 49.3797C75.0242 49.287 75.0867 49.1997 75.1875 49.1601C75.3376 49.1011 75.4964 49.0828 75.6477 49.0274C75.8731 48.9449 76.1288 48.9794 76.3664 48.9794C76.5737 48.9794 76.921 48.9086 77.0582 49.122C77.1296 49.2332 77.1171 49.4216 77.0991 49.5456C77.0722 49.7304 77.0507 49.9231 77.0455 50.1103Z" fill="#FFFBFF" stroke="black" stroke-width="0.3" stroke-linecap="round" stroke-linejoin="round"/>
<path d="M79.6476 54.0638C79.6476 54.0618 79.6476 54.0598 79.6476 54.0578C79.6423 54.0374 79.6321 54.0019 79.6287 53.9923C79.6154 53.956 79.5993 53.9161 79.5761 53.8851C79.5263 53.8188 79.4859 53.7469 79.4347 53.6806C79.3055 53.5131 79.1712 53.3206 78.9905 53.2049C78.8201 53.0957 78.6275 53.0183 78.4481 52.9253C78.246 52.8204 78.0236 52.7635 77.8204 52.6614C77.6025 52.5518 77.3734 52.4634 77.1639 52.3365C77.0515 52.2684 76.9281 52.1988 76.8427 52.0963C76.7826 52.0241 76.8147 51.9665 76.8375 51.8924C76.8454 51.8666 76.847 51.8461 76.847 51.8193C76.847 51.7582 76.8841 51.6989 76.9111 51.6458C76.9503 51.5689 76.9398 51.485 76.9815 51.4072C77.0053 51.3628 77.0228 51.3156 77.0467 51.2716C77.0867 51.198 77.1447 51.1381 77.1949 51.0718C77.3059 50.9255 77.3852 50.7924 77.5482 50.6997C77.675 50.6275 77.8033 50.5644 77.945 50.5262C78.2048 50.4563 78.5008 50.4461 78.7687 50.4595C78.8804 50.4651 78.9887 50.5005 79.1009 50.5084C79.1708 50.5133 79.2874 50.5116 79.3427 50.5609C79.4396 50.6475 79.5514 50.7019 79.5908 50.8353C79.651 51.0392 79.6381 51.2514 79.6381 51.4619C79.6381 51.6756 79.6412 51.9059 79.5861 52.1142C79.5748 52.157 79.5516 52.198 79.5456 52.2419C79.54 52.2831 79.5435 52.3266 79.5435 52.3681C79.5435 52.4768 79.553 52.5849 79.553 52.694C79.553 52.872 79.5787 53.045 79.5887 53.2217C79.6037 53.4864 79.6469 53.7921 79.6476 54.0578C79.6513 54.0723 79.6527 54.0792 79.6476 54.0638Z" fill="#FFFBFF"/>
<path d="M79.6476 54.0638C79.6476 53.7967 79.6039 53.4884 79.5887 53.2217C79.5787 53.045 79.553 52.872 79.553 52.694C79.553 52.5849 79.5435 52.4768 79.5435 52.3681C79.5435 52.3266 79.54 52.2831 79.5456 52.2419C79.5516 52.198 79.5748 52.157 79.5861 52.1142C79.6412 51.9059 79.6381 51.6756 79.6381 51.4619C79.6381 51.2514 79.651 51.0392 79.5908 50.8353C79.5514 50.7019 79.4396 50.6475 79.3427 50.5609C79.2874 50.5116 79.1708 50.5133 79.1009 50.5084C78.9887 50.5005 78.8804 50.4651 78.7687 50.4595C78.5008 50.4461 78.2048 50.4563 77.945 50.5262C77.8033 50.5644 77.675 50.6275 77.5482 50.6997C77.3852 50.7924 77.3059 50.9255 77.1949 51.0718C77.1447 51.1381 77.0867 51.198 77.0467 51.2716C77.0228 51.3156 77.0053 51.3628 76.9815 51.4072C76.9398 51.485 76.9503 51.5689 76.9111 51.6458C76.8841 51.6989 76.847 51.7582 76.847 51.8193C76.847 51.8461 76.8454 51.8666 76.8375 51.8924C76.8147 51.9665 76.7826 52.0241 76.8427 52.0963C76.9281 52.1988 77.0515 52.2684 77.1639 52.3365C77.3734 52.4634 77.6025 52.5518 77.8204 52.6614C78.0236 52.7635 78.246 52.8204 78.4481 52.9253C78.6275 53.0183 78.8201 53.0957 78.9905 53.2049C79.1712 53.3206 79.3055 53.5131 79.4347 53.6806C79.4859 53.7469 79.5263 53.8188 79.5761 53.8851C79.5993 53.9161 79.6154 53.956 79.6287 53.9923C79.6346 54.0087 79.6599 54.1009 79.6476 54.0638Z" stroke="black" stroke-width="0.3" stroke-linecap="round" stroke-linejoin="round"/>
<path d="M82.4388 55.3847C82.4388 55.5509 82.4566 55.7268 82.4198 55.8899C82.3727 55.8781 82.2814 55.897 82.2401 55.8752C82.176 55.8414 82.1146 55.7982 82.0487 55.7669C81.8571 55.6756 81.6715 55.5746 81.4874 55.4688C81.282 55.3509 81.0788 55.2124 80.9002 55.0567C80.8523 55.015 80.7988 54.9788 80.7472 54.9416C80.6527 54.8734 80.5688 54.7917 80.4797 54.7166C80.2659 54.5364 80.0568 54.3435 79.8579 54.1469C79.7855 54.0753 79.716 54.0006 79.6445 53.9282C79.6264 53.9099 79.5937 53.8838 79.5908 53.8556C79.5887 53.8344 79.6003 53.8193 79.6003 53.7989C79.6003 53.7221 79.5906 53.6336 79.6208 53.5618C79.6392 53.518 79.6677 53.4812 79.6802 53.4346C79.694 53.3833 79.7085 53.3341 79.7275 53.2843C79.753 53.2174 79.7765 53.149 79.8085 53.0851C79.8887 52.9245 79.9053 52.7395 80.0114 52.5931C80.1082 52.4593 80.2448 52.3581 80.4045 52.3181C80.5114 52.2914 80.6149 52.2945 80.7246 52.2945C80.8795 52.2945 81.0374 52.2867 81.1919 52.2987C81.4616 52.3196 81.7135 52.3889 81.9773 52.4417C82.0792 52.4621 82.2092 52.5 82.2947 52.5615C82.4233 52.654 82.5721 52.7807 82.6091 52.9426C82.6327 53.0461 82.6469 53.1317 82.6469 53.2396V53.5665C82.6469 53.769 82.6402 53.9828 82.588 54.1794C82.5284 54.4044 82.4877 54.6358 82.4766 54.8686C82.4684 55.0417 82.4388 55.2102 82.4388 55.3847Z" fill="#FFFBFF" stroke="black" stroke-width="0.3" stroke-linecap="round" stroke-linejoin="round"/>
<path d="M85.6369 56.2536C85.6369 56.6284 85.6947 57.1358 85.6463 57.5078C85.5688 57.5078 85.4841 57.4642 85.4135 57.4316C85.2554 57.3586 85.0979 57.2556 84.9556 57.1567C84.7347 57.003 84.5528 56.8031 84.3206 56.6652C83.9091 56.4208 83.4827 56.1993 83.0486 55.9982C82.8777 55.919 82.7129 55.8296 82.544 55.7469C82.5125 55.7315 82.4651 55.6971 82.4294 55.6912C82.4123 55.6883 82.4199 55.6437 82.4199 55.6302C82.4199 55.6099 82.4178 55.5884 82.4199 55.5682C82.4226 55.5431 82.4683 55.5247 82.4814 55.5014C82.5092 55.452 82.5493 55.4141 82.5829 55.3674C82.6137 55.3245 82.64 55.2826 82.667 55.2376C82.6903 55.1987 82.7319 55.1701 82.76 55.134C82.8168 55.061 82.895 54.9703 82.9687 54.9153C83.0328 54.8675 83.1021 54.8376 83.1674 54.7923C83.2102 54.7627 83.2592 54.7458 83.304 54.7198C83.3585 54.6882 83.406 54.6429 83.4612 54.6136L83.4668 54.6107C83.5483 54.5675 83.6279 54.5254 83.7162 54.4969C83.8163 54.4647 83.9091 54.409 84.0105 54.3766C84.1164 54.3427 84.2245 54.3287 84.3354 54.3287C84.5142 54.3287 84.6983 54.319 84.8726 54.3666C85.0691 54.4202 85.2884 54.4556 85.4571 54.5747C85.5829 54.6635 85.603 54.8187 85.62 54.9595C85.6471 55.1825 85.6274 55.4172 85.6274 55.6418C85.6274 55.8462 85.6369 56.0497 85.6369 56.2536Z" fill="#FFFBFF" stroke="black" stroke-width="0.3" stroke-linecap="round" stroke-linejoin="round"/>
<path d="M89.193 57.9376C89.193 58.1808 89.1118 58.4703 89.1041 58.7127C89.0574 58.6971 89.0328 58.6663 88.9947 58.6364C88.9133 58.5727 88.8282 58.5276 88.742 58.472C88.6451 58.4095 88.5352 58.3804 88.4377 58.3188C88.3454 58.2605 88.2359 58.2228 88.1384 58.1734C87.8784 58.0415 87.6076 57.9365 87.3287 57.8479C87.0986 57.7749 86.8765 57.6814 86.6475 57.6051C86.4172 57.5283 86.1775 57.4486 85.9394 57.3983C85.8849 57.3867 85.7114 57.4086 85.7114 57.3404C85.7114 57.3065 85.7218 57.2798 85.7241 57.2486C85.7304 57.1636 85.761 57.0804 85.775 56.9966C85.7898 56.9074 85.7994 56.8188 85.8187 56.7304C85.8948 56.3825 85.9613 56.0194 86.1999 55.7365C86.296 55.6226 86.4201 55.5123 86.5437 55.4287C86.6446 55.3606 86.7609 55.3181 86.8684 55.2621C87.0017 55.1927 87.1166 55.1548 87.2659 55.1548H87.8264C87.9724 55.1548 88.1594 55.127 88.2965 55.1873C88.3672 55.2184 88.4344 55.2729 88.4885 55.3271C88.6162 55.4547 88.725 55.5843 88.8246 55.7337C88.89 55.8319 88.8831 55.956 88.9516 56.0513C89.0132 56.137 89.0089 56.2087 89.0406 56.3055C89.0939 56.4683 89.1422 56.6252 89.1422 56.7982C89.1422 56.8727 89.158 56.9452 89.1705 57.0185C89.1898 57.1323 89.193 57.2419 89.193 57.3573V57.9376Z" fill="#FFFBFF" stroke="black" stroke-width="0.3" stroke-linecap="round" stroke-linejoin="round"/>
<path d="M91.0971 58.8608C91.2641 58.8608 91.4265 58.8507 91.5881 58.804C91.5881 58.6968 91.5761 58.5175 91.5689 58.4093L91.5686 58.4051C91.5637 58.3315 91.5453 58.2613 91.5334 58.189C91.5129 58.064 91.5017 57.941 91.4693 57.8179C91.4143 57.6089 91.3806 57.3911 91.3368 57.1793C91.2913 56.9588 91.2308 56.7437 91.1508 56.5333C91.1136 56.4355 91.0685 56.3431 91.0225 56.2494C90.9934 56.19 90.972 56.1268 90.9358 56.0712C90.9124 56.0354 90.8982 55.975 90.8501 55.975H90.7912C90.6683 55.975 90.5462 55.9896 90.4354 56.0465C90.2105 56.1619 90.0243 56.3355 89.8345 56.4986C89.7462 56.5745 89.6643 56.6496 89.5922 56.7409C89.5243 56.827 89.4953 56.9349 89.4592 57.0368C89.3836 57.2508 89.3079 57.4559 89.3079 57.685V58.3856C89.3079 58.4154 89.3053 58.441 89.3173 58.4682C89.3256 58.4867 89.3536 58.4836 89.3704 58.4923C89.4226 58.5196 89.4819 58.5458 89.537 58.5654C89.578 58.5799 89.6098 58.6019 89.649 58.6195C89.7172 58.6502 89.7904 58.6975 89.8619 58.7168C89.9199 58.7325 89.9821 58.7441 90.0422 58.7467C90.1319 58.7507 90.2121 58.769 90.2993 58.789L90.3055 58.7904C90.5684 58.8504 90.8285 58.8608 91.0971 58.8608Z" fill="#FFFBFF" stroke="black" stroke-width="0.3" stroke-linecap="round" stroke-linejoin="round"/>
<path d="M91.5581 57.7181C91.6204 57.98 91.6379 58.208 91.6383 58.4765C91.9574 58.4765 92.437 58.7621 92.7562 58.7621H93.2998C93.4654 58.7621 93.6231 58.7249 93.7875 58.715C94.0137 58.7013 94.2243 58.6475 94.4521 58.6475H94.8467C94.969 58.6475 94.9155 58.3368 94.9155 58.2452C94.9155 57.9397 94.9086 57.6427 94.9562 57.3412C95.0217 56.9264 95.0759 56.4866 95.0759 56.0668V55.0266C95.0759 54.6906 94.9273 54.3979 94.8315 54.0844C94.7663 53.8711 94.6153 53.6565 94.4979 53.4682C94.3722 53.2665 94.2675 53.0517 94.1414 52.8494C94.025 52.6626 93.8824 52.484 93.7811 52.2892C93.7218 52.1753 93.6298 52.0246 93.5392 51.934C93.4197 51.8145 93.2945 51.6969 93.1738 51.5762C93.0328 51.4352 92.8571 51.3169 92.7383 51.1586C92.6941 51.0996 92.6133 51.073 92.5601 51.0211C92.5146 50.9766 92.4724 50.9215 92.4162 50.89C92.3178 50.8346 92.2166 50.7335 92.1298 50.6582C91.9243 50.4802 91.7228 50.3427 91.4804 50.2215C91.3294 50.146 91.1838 50.0653 91.0297 49.9975C90.8566 49.9213 90.6771 49.8643 90.5052 49.7886C90.1558 49.6349 89.7897 49.618 89.4102 49.618H88.1778H86.9886C86.8447 49.618 86.725 49.655 86.5914 49.7097C86.5021 49.7462 86.3247 49.8687 86.3036 49.9669C86.2554 50.1922 86.3187 50.4493 86.4475 50.6353C86.4837 50.6877 86.4946 50.7279 86.5175 50.7868C86.5423 50.8504 86.6007 50.8861 86.6372 50.9422C86.6911 51.0249 86.7636 51.0924 86.8078 51.1764C86.9367 51.4212 87.1014 51.4793 87.3286 51.6119C87.4564 51.6864 87.5894 51.698 87.7194 51.7595C87.7965 51.796 87.8695 51.8407 87.9486 51.8741C88.0198 51.9043 88.1062 51.8947 88.1727 51.9327C88.253 51.9786 88.3472 51.9958 88.4299 52.0371C88.5842 52.1143 88.7139 52.2343 88.8538 52.3312C88.8983 52.362 88.967 52.3279 89.0015 52.3796C89.0282 52.4196 89.0757 52.4172 89.1174 52.4369C89.2828 52.515 89.3853 52.6353 89.5248 52.7475C89.6772 52.8701 89.7882 53.0396 89.9424 53.1588C90.0885 53.2717 90.2352 53.5111 90.2976 53.6846C90.3256 53.7624 90.3931 53.803 90.4237 53.8794C90.4432 53.9283 90.4753 53.9741 90.5103 54.0131C90.6074 54.1214 90.6556 54.2916 90.6809 54.4307C90.7143 54.6145 90.8555 54.7672 90.882 54.9463C90.8997 55.0654 90.9952 55.1756 91.0539 55.2799C91.1471 55.4456 91.2427 55.6341 91.2895 55.8159C91.342 56.0201 91.2945 56.2978 91.2945 56.5073C91.2945 56.617 91.2915 56.7273 91.2945 56.837C91.297 56.9256 91.3371 57.0164 91.3404 57.1069C91.348 57.321 91.5092 57.5126 91.5581 57.7181Z" fill="#AB1A11"/>
<path d="M91.6383 58.4871C91.6383 58.214 91.6213 57.9834 91.5581 57.7181C91.5092 57.5126 91.348 57.321 91.3404 57.1069C91.3371 57.0164 91.297 56.9256 91.2945 56.837C91.2915 56.7273 91.2945 56.617 91.2945 56.5073C91.2945 56.2978 91.342 56.0201 91.2895 55.8159C91.2427 55.6341 91.1471 55.4456 91.0539 55.2799C90.9952 55.1756 90.8997 55.0654 90.882 54.9463C90.8555 54.7672 90.7143 54.6145 90.6809 54.4307C90.6556 54.2916 90.6074 54.1214 90.5103 54.0131C90.4753 53.9741 90.4432 53.9283 90.4237 53.8794C90.3931 53.803 90.3256 53.7624 90.2976 53.6846C90.2352 53.5111 90.0885 53.2717 89.9424 53.1588C89.7882 53.0396 89.6772 52.8701 89.5248 52.7475C89.3853 52.6353 89.2828 52.515 89.1174 52.4369C89.0757 52.4172 89.0282 52.4196 89.0015 52.3796C88.967 52.3279 88.8983 52.362 88.8538 52.3312C88.7139 52.2343 88.5842 52.1143 88.4299 52.0371C88.3472 51.9958 88.253 51.9786 88.1727 51.9327C88.1062 51.8947 88.0198 51.9043 87.9486 51.8741C87.8695 51.8407 87.7965 51.796 87.7194 51.7595C87.5894 51.698 87.4564 51.6864 87.3286 51.6119C87.1014 51.4793 86.9367 51.4212 86.8078 51.1764C86.7636 51.0924 86.6911 51.0249 86.6372 50.9422C86.6007 50.8861 86.5423 50.8504 86.5175 50.7868C86.4946 50.7279 86.4837 50.6877 86.4475 50.6353C86.3187 50.4493 86.2554 50.1922 86.3036 49.9669C86.3247 49.8687 86.5021 49.7462 86.5914 49.7097C86.725 49.655 86.8447 49.618 86.9886 49.618C87.385 49.618 87.7814 49.618 88.1778 49.618C88.5886 49.618 88.9994 49.618 89.4102 49.618C89.7897 49.618 90.1558 49.6349 90.5052 49.7886C90.6771 49.8643 90.8566 49.9213 91.0297 49.9975C91.1838 50.0653 91.3294 50.146 91.4804 50.2215C91.7228 50.3427 91.9243 50.4802 92.1298 50.6582C92.2166 50.7335 92.3178 50.8346 92.4162 50.89C92.4724 50.9215 92.5146 50.9766 92.5601 51.0211C92.6133 51.073 92.6941 51.0996 92.7383 51.1586C92.8571 51.3169 93.0328 51.4352 93.1738 51.5762C93.2945 51.6969 93.4197 51.8145 93.5392 51.934C93.6298 52.0246 93.7218 52.1753 93.7811 52.2892C93.8824 52.484 94.025 52.6626 94.1414 52.8494C94.2675 53.0517 94.3722 53.2665 94.4979 53.4682C94.6153 53.6565 94.7663 53.8711 94.8315 54.0844C94.9273 54.3979 95.0759 54.6906 95.0759 55.0266C95.0759 55.3733 95.0759 55.72 95.0759 56.0668C95.0759 56.4866 95.0217 56.9264 94.9562 57.3412C94.9086 57.6427 94.9155 57.9397 94.9155 58.2452C94.9155 58.3368 94.969 58.6475 94.8467 58.6475C94.7152 58.6475 94.5836 58.6475 94.4521 58.6475C94.2243 58.6475 94.0137 58.7013 93.7875 58.715C93.6231 58.7249 93.4654 58.7621 93.2998 58.7621C93.1186 58.7621 92.9374 58.7621 92.7562 58.7621C92.437 58.7621 91.9574 58.4765 91.6383 58.4765" stroke="black" stroke-width="0.3" stroke-linecap="round" stroke-linejoin="round"/>
<path d="M90 45L85.5 44.5L84 43.5L82 41.5L78.5 37.5L76 36H74L71.5 38L71 40V43.5L72 46L74 50L78.5 53.5L84 57L89 58.5L92.5 59L96.5 58.5L98.5 57L100 55L100.5 52.5L99.5 50L97.5 47.5L94 45.5L90 45Z" stroke="black"/>
</svg>
