<svg width="124" height="88" viewBox="0 0 124 88" fill="none" xmlns="http://www.w3.org/2000/svg">
<g clip-path="url(#clip0)">
<path d="M86.1655 65.374C86.0812 64.7761 85.8054 64.2948 85.3763 63.8764C84.939 63.4504 84.6571 62.9484 84.7744 62.3011L84.784 62.1576C84.8122 61.5913 84.6376 61.1121 84.1534 60.7886C83.7898 60.545 83.6312 60.2089 83.6286 59.7829C83.6258 59.2228 83.4796 58.735 83.0526 58.3259C82.6828 57.9706 82.534 57.5217 82.6476 56.9808C82.7441 56.5264 82.7686 56.0533 82.7908 55.5874C82.8079 55.2244 82.7291 54.8613 82.5269 54.556C82.3625 54.3069 82.3356 54.0539 82.342 53.7719C82.3492 53.4742 82.3238 53.1741 82.2982 52.877C82.2788 52.6482 82.1618 52.4678 81.9627 52.3515C81.7011 52.1993 81.5711 51.9668 81.5453 51.6755C81.5174 51.3407 81.5097 51.0053 81.2715 50.7291C81.2295 50.6811 81.2287 50.5934 81.2181 50.5223C81.1363 49.948 80.8786 49.4532 80.545 48.9897C80.3533 48.7223 80.2316 48.4236 80.1947 48.0952C80.1225 47.458 79.9471 46.8447 79.7052 46.2578C79.4447 45.6266 79.12 45.0233 78.8387 44.4003C78.741 44.185 78.6576 43.9541 78.6214 43.7223C78.5478 43.2495 78.5016 42.7715 78.4621 42.2934C78.415 41.7173 78.4329 41.1446 78.5607 40.5756C78.6825 40.0256 78.7857 39.4709 78.889 38.9168C78.9257 38.7167 78.9497 38.5128 78.9536 38.3096C78.9586 38.0651 78.9045 37.8314 78.7179 37.651C78.47 37.4114 78.2127 37.4128 78.0197 37.7013C77.8632 37.9386 77.723 38.201 77.6426 38.4722C77.4843 39.0053 77.2791 39.512 77.0034 39.994C76.8113 40.33 76.7764 40.6881 76.8446 41.0733C76.9786 41.8217 76.9618 42.554 76.5479 43.2332C76.43 43.4269 76.3356 43.6367 76.2524 43.8483C76.1682 44.0588 76.0792 44.277 76.0537 44.4988C75.992 45.0217 75.9163 45.5514 75.941 46.0752C75.9744 46.7722 75.9409 47.4614 75.9066 48.1565C75.8779 48.7337 75.7231 49.2367 75.428 49.7134C75.241 50.0154 75.1365 50.3476 75.1026 50.6965C75.0616 51.1145 75.0377 51.5332 75.0191 51.9529C75.0111 52.1438 75.0192 52.3377 75.0424 52.5268C75.1556 53.4314 75.2859 54.3339 75.3898 55.2383C75.414 55.4529 75.4841 55.6817 75.3804 55.9038L75.3064 55.8629C75.0045 55.594 74.8955 55.2301 74.7771 54.8602C74.5007 53.9928 74.2171 53.1291 74.0574 52.2296C74.0089 51.958 73.9392 51.6903 73.8885 51.4192C73.8473 51.1973 73.7193 51.0539 73.5242 50.9588C73.4499 50.9231 73.3741 50.8913 73.2887 50.8527C73.2657 50.684 73.2432 50.5182 73.2204 50.3532C73.1637 49.9507 73.0293 49.5946 72.7008 49.3184C72.5837 49.2209 72.5031 49.0436 72.4709 48.8893C72.3872 48.4914 72.3371 48.0853 72.2818 47.6817C72.2342 47.3476 72.0576 47.1063 71.779 46.9306C71.708 46.8868 71.6218 46.8573 71.5653 46.8001C71.4771 46.7109 71.3558 46.6121 71.3386 46.5031C71.2746 46.1147 71.2234 45.7205 71.2157 45.3279C71.2093 45.0185 71.2826 44.7084 71.3031 44.3976C71.3395 43.8354 71.3833 43.2739 71.3859 42.7112C71.3874 42.4235 71.2092 42.2616 70.9559 42.2081C70.713 42.1549 70.5339 42.2197 70.4102 42.4998C70.197 42.9805 70.0074 43.4743 69.846 43.9735C69.7752 44.195 69.7811 44.4458 69.7798 44.6837C69.7786 45.0828 69.7708 45.481 69.5504 45.8312C69.3121 46.2104 69.2277 46.6268 69.2097 47.0655C69.2072 47.1378 69.1862 47.2098 69.1676 47.318C68.8681 46.8662 68.7793 46.835 68.3863 47.0251C68.3568 46.9613 68.3358 46.8918 68.2964 46.8352C68.12 46.5814 67.8913 46.586 67.7334 46.8544C67.6671 46.9657 67.6023 47.0912 67.5853 47.2174C67.5218 47.6924 67.457 48.1684 67.4305 48.6455C67.4051 49.1238 67.4447 49.6055 67.4229 50.0838C67.374 51.1368 67.4002 52.1953 67.1796 53.2362C67.1525 53.3631 67.1616 53.4989 67.1656 53.63C67.1898 54.335 67.3564 55.0051 67.647 55.6473C67.9937 56.4113 68.1535 57.2207 68.205 58.054C68.2395 58.5924 68.0225 59.0614 67.778 59.5189C67.3905 60.2421 67.3163 60.9928 67.5571 61.7808C67.6739 62.1642 67.8377 62.517 68.0733 62.8414C68.4815 63.4013 68.7209 64.0137 68.6183 64.7245C68.601 64.8428 68.5965 64.9655 68.6077 65.0838C68.6345 65.383 68.6858 65.6708 68.8801 65.9266C68.9906 66.0732 69.067 66.2616 69.1081 66.4432C69.2698 67.1576 69.4096 67.8762 69.5649 68.592C69.592 68.7187 69.6442 68.8437 69.7053 68.9586C69.7925 69.1257 69.9276 69.2486 70.1266 69.251C70.3422 69.2537 70.4386 69.0918 70.5129 68.924C70.646 68.6228 70.7172 68.3066 70.6788 67.977C70.6105 67.3844 70.6832 66.8071 70.793 66.2266C70.842 65.9624 70.8231 65.6754 70.7825 65.4072C70.7024 64.8809 70.4776 64.3995 70.2594 63.918C70.2058 63.8 70.1567 63.6692 70.1514 63.5422C70.1264 62.9166 70.2341 62.3087 70.6015 61.7974C70.9032 61.3743 70.9754 60.9553 70.803 60.4786C70.7626 60.365 70.7453 60.2427 70.6958 60.134C70.5411 59.7978 70.5125 59.4471 70.5151 59.0814C70.5177 58.5788 70.5336 58.0703 70.4666 57.574C70.3556 56.7501 70.3205 55.9282 70.3382 55.1003C70.3514 54.5256 70.2349 53.9838 69.9226 53.487C69.6191 53.0038 69.5195 52.4686 69.5855 51.8978C69.6182 51.6127 69.6075 51.3234 69.6363 51.0378C69.6681 50.7215 69.6665 50.3935 69.8746 50.0334C69.9341 50.1986 69.9889 50.3016 70.0075 50.4097C70.0655 50.765 70.1178 51.1207 70.1592 51.4767C70.2144 51.9389 70.3958 52.3059 70.8547 52.4833C71.0584 52.561 71.1868 52.7097 71.2665 52.9091C71.3474 53.1092 71.4945 53.2822 71.6905 53.3251C72.1549 53.4278 72.305 53.7753 72.4304 54.1606L72.4639 54.2631C72.7005 54.9457 72.9731 55.6022 73.4599 56.161C73.6565 56.3863 73.7466 56.7074 73.8734 56.9896C73.9578 57.1742 73.9871 57.3915 74.1002 57.5536C74.3238 57.8761 74.3765 58.2334 74.4195 58.6065C74.5135 59.4004 74.8214 59.8034 75.5384 59.7894C75.7155 59.7857 75.8331 59.8685 75.8877 60.0405C75.9433 60.2108 76.0044 60.3799 76.065 60.5492C76.2232 60.991 76.3932 61.4287 76.7602 61.7485C76.9746 61.9354 77.2143 62.0179 77.4896 61.8872C77.7161 61.7788 77.8602 61.4915 77.8217 61.1885C77.788 60.9144 77.7502 60.6382 77.6761 60.3737C77.4742 59.6527 77.5445 58.9505 77.7536 58.245C77.8134 58.0435 77.8463 57.8193 77.8297 57.6102C77.7989 57.2292 77.734 56.8493 77.6632 56.4724C77.5354 55.7924 77.5186 55.1343 77.9577 54.5433L78.0111 54.4494C78.3521 53.674 78.4697 52.891 78.1135 52.0836C77.8407 51.4632 77.8147 50.8062 77.8502 50.1431C77.8569 50.0133 77.8812 49.8842 77.8983 49.7543C77.9891 49.8855 78.0173 50.0142 78.0455 50.1428C78.1333 50.54 78.3288 50.8512 78.7222 51.0136C78.8205 51.0542 78.9102 51.1197 78.9967 51.1842C79.2088 51.3438 79.3473 51.5458 79.331 51.825C79.3169 52.0882 79.3021 52.351 79.2806 52.6144C79.2393 53.1271 79.1282 53.6454 79.1652 54.1518C79.218 54.8704 79.4074 55.5714 79.8259 56.1856C79.9116 56.3127 80.0001 56.4493 80.0415 56.595C80.1339 56.9303 80.2186 57.2702 80.2712 57.6134C80.4465 58.7713 80.979 59.7159 81.908 60.4318C82.149 60.6165 82.2179 60.8513 82.2097 61.1544C82.1991 61.5701 82.2232 61.9907 82.2811 62.4025C82.3423 62.8451 82.5964 63.1471 83.0658 63.2187L83.1397 63.2686C83.1881 63.4896 83.2415 63.7234 83.2892 63.9577C83.3538 64.269 83.515 64.5145 83.7943 64.6666C84.0138 64.7872 84.2389 64.9086 84.4751 64.9888C84.7165 65.0715 84.817 65.2232 84.8378 65.465C84.8567 65.6917 84.8944 65.9165 84.9284 66.1422C84.9575 66.3314 85.0402 66.4856 85.2411 66.5406C85.4271 66.5914 85.5271 66.4632 85.6323 66.3456L85.699 66.3266L85.7545 66.3659C86.0043 66.5274 86.1439 66.5333 86.3022 66.3902C86.4595 66.2472 86.4642 66.088 86.3409 65.8393C86.2673 65.6912 86.1881 65.5341 86.1655 65.374Z" fill="black"/>
<path d="M30.5595 78.9726C30.396 78.5533 30.1329 78.2004 29.7514 77.9424C29.2919 77.629 28.9642 77.2222 28.8076 76.6743C28.6274 76.0452 28.1701 75.7048 27.5429 75.6077C27.3367 75.5753 27.18 75.5048 27.0513 75.3511C26.8977 75.1677 26.73 74.9935 26.5929 74.7985C26.4188 74.5515 26.1789 74.4121 25.897 74.4114C25.5679 74.4094 25.3879 74.2488 25.2573 73.9834C25.209 73.8863 25.152 73.7932 25.1137 73.6923C24.8612 73.0433 24.3866 72.6312 23.7367 72.4172C23.5291 72.3484 23.4044 72.2166 23.2766 72.0474C23.0171 71.7048 22.7675 71.3335 22.4378 71.0715C21.9682 70.6986 21.4259 70.4509 20.825 70.8552L20.7369 70.8504C20.6208 70.7007 20.508 70.5304 20.3703 70.383C20.0346 70.0263 19.866 70.0252 19.5061 70.3533L19.4504 70.3691C19.3985 70.3028 19.3422 70.2293 19.2838 70.1564C19.0809 69.9048 18.8904 69.6407 18.6705 69.4045C18.4732 69.1926 18.2511 69.0097 17.9145 69.1002C17.8288 69.1234 17.7209 69.062 17.5523 69.0236C17.6973 68.867 17.7686 68.7686 17.8596 68.696C18.1425 68.4676 18.3321 68.1841 18.3787 67.822C18.4001 67.659 18.483 67.5529 18.6099 67.4811C18.7656 67.3934 18.9275 67.3105 19.0973 67.257C19.5546 67.1129 19.803 66.7667 19.9496 66.3505C20.1008 65.9215 20.1826 65.4697 20.1575 65.0075C20.144 64.7686 20.1385 64.5499 20.3451 64.3574C20.443 64.2663 20.4744 64.0754 20.4849 63.9266C20.4964 63.7379 20.4759 63.5407 20.4333 63.3566C20.3595 63.0363 20.381 62.7502 20.559 62.4604C20.8857 61.9337 20.8874 61.3704 20.6598 60.8023C20.4758 60.3434 20.3234 59.8879 20.3958 59.3729C20.4824 58.763 20.2385 58.2909 19.6741 58.0166C19.5014 57.9327 19.4188 57.8167 19.4049 57.6329C19.3974 57.5252 19.3848 57.4173 19.3665 57.3107C19.304 56.9454 19.2457 56.5793 19.1685 56.2165C19.1467 56.1172 19.086 56.0073 19.0094 55.9412C18.4693 55.4768 18.0961 55.3805 17.5513 55.7161C17.439 55.7854 17.3271 55.8591 17.2057 55.9061C17.0099 55.9841 16.9236 55.9342 16.857 55.734C16.8086 55.5862 16.7727 55.4329 16.7095 55.2913C16.5798 54.9936 16.3673 54.8818 16.0445 54.9349C15.9271 54.9539 15.809 54.9858 15.7001 55.0331C15.3626 55.1796 15.0467 55.1873 14.707 55.0065C14.4681 54.8778 14.1931 54.8119 13.9277 54.7397C13.4661 54.6135 12.9972 54.514 12.5372 54.3823C12.2528 54.2995 11.9736 54.2843 11.6856 54.3365C11.5446 54.3615 11.4051 54.4126 11.2628 54.4181C10.7911 54.4357 10.4607 54.6818 10.1726 55.0301C9.85142 55.4179 9.52149 55.7994 9.17756 56.1673C8.72586 56.651 8.19007 56.9611 7.4958 56.8956L7.35278 56.8976C7.07061 56.8721 6.84741 56.9929 6.62998 57.1592C6.2798 57.428 6.01232 57.7607 5.80601 58.1452C5.68512 58.3719 5.53553 58.4808 5.25884 58.4205C5.01316 58.368 4.89318 58.4383 4.82552 58.6372C4.66352 59.1132 4.65148 59.8437 5.28837 60.2289C5.39121 60.2907 5.49407 60.3526 5.60058 60.4076C6.0322 60.6304 6.16496 61 6.12442 61.4597C6.10734 61.6621 6.08405 61.8666 6.09173 62.0686C6.12534 62.9005 6.35066 63.6311 7.1574 64.0533C7.32583 64.1411 7.48003 64.2634 7.62635 64.3867C7.88831 64.6072 8.10372 64.8553 8.08981 65.2359C8.07934 65.5225 8.11096 65.8103 8.10182 66.096C8.09388 66.3375 8.13906 66.5437 8.31869 66.7185C8.38282 66.7806 8.43986 66.8773 8.44988 66.9631C8.47572 67.1876 8.56582 67.3752 8.7027 67.5491C8.84952 67.7345 8.90302 67.9392 8.88803 68.1843C8.86287 68.5841 8.98442 68.9416 9.31843 69.2004C9.46106 69.3106 9.59432 69.431 9.73696 69.5412C9.9491 69.7044 10.0786 69.8981 10.0585 70.1841C10.0356 70.5072 10.1458 70.7865 10.3466 71.0481C10.773 71.6048 11.1056 72.2211 11.259 72.908C11.3451 73.2976 11.4714 73.6971 11.3174 74.1099C11.1872 74.4574 11.3668 74.7397 11.6187 74.9277C11.9689 75.1897 12.1827 75.5408 12.4069 75.8965C12.5125 76.0647 12.5312 76.2234 12.464 76.4074C12.2624 76.9609 12.36 77.4864 12.6051 78.0074C12.7776 78.3735 13.0258 78.6783 13.3063 78.957C13.5064 79.1557 13.6713 79.3703 13.7723 79.6311C13.8576 79.8528 13.9904 80.0253 14.2054 80.138C14.2733 80.1737 14.3469 80.2427 14.3689 80.3133C14.4902 80.6868 14.6635 81.0434 14.6397 81.4592C14.6152 81.8815 14.7536 82.0726 15.1634 82.2093C15.4381 82.3008 15.5726 82.487 15.6429 82.7412C15.6969 82.9375 15.7276 83.1413 15.781 83.3377C15.8774 83.6845 16.0537 83.978 16.3845 84.1519C16.5342 84.2306 16.6943 84.3098 16.8565 84.1951C17.0221 84.0797 17.0604 83.8998 17.0231 83.7129C16.9794 83.4902 16.9199 83.2686 16.8567 83.0501C16.7468 82.6689 16.6804 82.2987 17.0293 81.9934L17.0706 81.9352C17.3964 81.4308 17.3446 80.9874 16.9431 80.5374C16.6481 80.2062 16.4632 79.8266 16.5589 79.355C16.5965 79.1693 16.6179 78.9689 16.591 78.7829C16.5636 78.6011 16.5029 78.4011 16.3912 78.2615C16.1748 77.9923 15.916 77.7557 15.6673 77.5126C15.2772 77.1319 15.0123 76.7144 15.2163 76.1388L15.2386 76.0336C15.4178 75.4219 15.3248 74.8705 14.8685 74.4039C14.7289 74.2613 14.6809 74.1056 14.7604 73.9138C14.909 73.5601 14.7993 73.2631 14.5623 72.9865C14.422 72.8238 14.2929 72.6483 14.1798 72.4664C13.9629 72.118 14.0342 71.8619 14.4483 71.6041C14.6689 71.7594 14.9092 71.9377 15.1579 72.1039C15.5272 72.3499 15.9279 72.3882 16.3155 72.1795C16.6075 72.0225 16.8201 72.1115 17.0219 72.3077C17.2368 72.5172 17.4307 72.7474 17.6489 72.9517C17.8227 73.1137 18.0078 73.2704 18.2103 73.3932C18.4225 73.5234 18.5545 73.471 18.6927 73.2632C18.9486 72.8746 19.0171 72.8536 19.3989 73.1093C19.6087 73.2518 19.8204 73.3395 20.0707 73.2526C20.2575 73.1867 20.3973 73.2403 20.5103 73.3923C20.7524 73.7189 21.0053 74.0381 21.2351 74.3725C21.5234 74.7931 21.8647 74.8709 22.2695 74.5843C22.3278 74.543 22.3838 74.4977 22.4435 74.4567C22.6733 74.2994 22.698 74.2887 22.8962 74.5018C23.1403 74.7643 23.3714 75.0407 23.5903 75.3254C23.8835 75.7048 24.2739 75.9102 24.7359 75.8911C25.0174 75.88 25.1878 75.9762 25.3449 76.1725C25.4268 76.2756 25.5195 76.3712 25.6013 76.4742C25.9808 76.9503 26.3874 77.3831 27.0446 77.4467L27.1784 77.4965C27.5268 77.6401 27.8601 77.795 27.9723 78.2103C28.0845 78.6227 28.3373 78.9616 28.5757 79.3081C28.7387 79.5444 28.9389 79.7197 29.2184 79.7993C29.4456 79.8645 29.6197 79.9979 29.7491 80.2013C29.8723 80.3927 30.0105 80.5757 30.1524 80.7527C30.3503 80.9983 30.6378 81.1149 30.8031 81.0302C30.9748 80.942 31.0271 80.7202 30.9425 80.3774C30.9059 80.227 30.7917 80.0762 30.807 79.9356C30.8462 79.576 30.6797 79.2805 30.5595 78.9726ZM16.6376 66.3895C16.5751 66.4515 16.487 66.4907 16.4052 66.5284C16.2244 66.6149 16.0295 66.6774 15.8579 66.7796C15.6638 66.8955 15.4756 67.029 15.3068 67.1803C15.1773 67.2974 15.0588 67.4413 14.9806 67.5955C14.8685 67.8186 14.7165 67.9898 14.491 68.1433C14.3916 68.0911 14.2932 68.0253 14.185 67.9824C13.7103 67.7938 13.456 67.8284 13.1801 68.1489C13.1048 68.2366 13.0093 68.3052 12.8533 68.4449C12.8385 68.2165 12.816 68.0705 12.8231 67.9259C12.8303 67.7953 12.8755 67.6674 12.8945 67.5372C12.9533 67.1373 12.8768 66.992 12.4933 66.8517C12.3359 66.7946 12.2614 66.7053 12.231 66.5494C12.1853 66.3138 12.1303 66.0795 12.0774 65.8448C12.0002 65.4989 11.8058 65.2703 11.4491 65.1849C11.2096 65.1274 11.1743 65.056 11.1747 64.8037C11.176 64.6496 11.1708 64.4923 11.1547 64.3383C11.1031 63.8189 10.7731 63.5217 10.3359 63.303C10.2611 63.2659 10.1749 63.1829 10.1606 63.1076C10.0904 62.7469 9.89236 62.4143 9.95391 62.0233C9.99249 61.7751 9.80774 61.6235 9.62039 61.5099C9.32711 61.3337 9.23751 61.0616 9.23168 60.7477C9.22577 60.4837 9.32503 60.382 9.58623 60.3614C9.65765 60.3568 9.73064 60.3422 9.80114 60.3473C10.4148 60.3954 10.82 60.0773 11.1344 59.5949C11.1864 59.5146 11.2422 59.4356 11.2925 59.3543C11.4625 59.078 11.7165 58.9381 12.0309 58.903C12.2337 58.8799 12.4396 58.8845 12.6396 58.8518C12.8982 58.8098 13.1517 58.744 13.4366 58.6816C14.2178 59.5755 14.4841 59.6448 15.2758 59.1429C15.5283 59.3067 15.8023 59.4454 15.7317 59.8479C15.6998 60.033 15.8023 60.2004 15.9542 60.3159C16.1635 60.4761 16.3729 60.6369 16.5948 60.7781C16.7455 60.8748 16.9176 60.9383 17.0837 61.0185C17.0259 61.1887 17.0001 61.278 16.9651 61.3626C16.8235 61.7081 16.8282 61.927 17.1105 62.1363C17.4999 62.4241 17.4187 62.8348 17.4824 63.213L17.4587 63.315C17.2916 63.6141 17.1196 63.9119 16.9533 64.2115C16.7885 64.5079 16.7908 64.8328 16.809 65.1564C16.8201 65.3474 16.851 65.538 16.8621 65.7297C16.876 65.9781 16.8207 66.21 16.6376 66.3895Z" fill="black"/>
<path d="M118.304 43.8732C118.123 43.8295 117.974 43.9015 117.835 44.0018C117.476 44.2599 117.11 44.5094 116.768 44.7875C116.547 44.9664 116.314 45.1624 116.17 45.4007C115.72 46.1487 114.926 46.5586 114.418 47.2441L114.361 47.2885C113.848 47.6391 113.353 48.021 112.816 48.3301C112.347 48.5993 111.85 48.8083 111.617 49.3653C111.581 49.2413 111.57 49.1367 111.584 49.0353C111.627 48.7364 111.524 48.4922 111.321 48.2844C111.17 48.1297 111.007 47.9875 110.857 47.8318C110.785 47.7575 110.697 47.6711 110.679 47.5784C110.634 47.3471 110.495 47.2023 110.328 47.0541C110.22 46.9568 110.119 46.8157 110.084 46.6774C109.903 45.9568 109.748 45.2307 109.575 44.5092C109.488 44.1457 109.269 43.8967 108.907 43.7723C108.801 43.736 108.676 43.6609 108.627 43.569C108.278 42.9029 107.713 42.3604 107.514 41.6086C107.492 41.5291 107.451 41.4518 107.405 41.3825C107.043 40.8315 106.689 40.275 106.309 39.7375C106.152 39.5153 105.942 39.326 105.737 39.1429C105.659 39.0748 105.49 39.0101 105.427 39.0496C105.334 39.1059 105.25 39.2591 105.253 39.3685C105.259 39.5674 105.325 39.7654 105.376 39.9625C105.528 40.5646 105.686 41.1671 105.845 41.7788C105.482 41.9477 105.446 42.2225 105.534 42.5226C105.653 42.9241 105.789 43.3193 105.924 43.7148C106.002 43.9412 106.111 44.1577 106.169 44.3883C106.282 44.8422 106.374 45.302 106.467 45.7604C106.571 46.2743 106.762 46.7513 107.083 47.1647C107.351 47.512 107.552 47.8872 107.665 48.3098C107.724 48.5292 107.785 48.7498 107.826 48.9731C107.868 49.194 107.985 49.3493 108.182 49.4406C108.319 49.5037 108.467 49.5407 108.688 49.6156C108.657 50.2021 108.641 50.8002 108.59 51.3962C108.542 51.9683 108.43 52.5314 108.712 53.0884C108.84 53.3396 108.758 53.4722 108.512 53.6218C108.359 53.7155 108.194 53.7905 108.045 53.8899C107.657 54.1484 107.259 54.3948 106.895 54.6857C106.582 54.9368 106.611 55.1643 106.927 55.4169L106.997 55.4827L106.971 55.5573C106.903 55.6236 106.832 55.6882 106.759 55.749C106.289 56.14 105.947 56.6297 105.669 57.1657C105.48 57.5295 105.521 57.7375 105.798 58.0059C106.12 58.3172 106.141 58.4403 105.884 58.8006C105.572 59.2399 105.248 59.671 104.922 60.0993C104.774 60.2937 104.657 60.4931 104.623 60.7423C104.613 60.826 104.565 60.9339 104.499 60.9756C104.108 61.2231 103.912 61.5967 103.788 62.0218C103.679 62.4006 103.493 62.73 103.189 62.9837C103.024 63.12 102.836 63.2296 102.676 63.3717C101.961 64.0069 101.433 64.7969 100.907 65.5836C100.786 65.764 100.745 66.0055 100.7 66.2256C100.653 66.4537 100.657 66.6859 100.911 66.8171C101.125 66.9272 101.341 66.8807 101.564 66.6734L101.685 66.5414C102.072 66.038 102.45 65.5279 102.847 65.0325C102.994 64.8485 103.164 64.6632 103.363 64.545C103.751 64.3133 104.163 64.1183 104.575 63.9262C105.019 63.7174 105.385 63.4366 105.646 63.0055C105.993 62.431 106.372 61.876 106.74 61.3138C106.798 61.2248 106.863 61.1337 106.94 61.0611C107.203 60.8115 107.367 60.5028 107.424 60.1553C107.525 59.5381 107.798 58.9945 108.086 58.4542C108.215 58.2111 108.365 57.9781 108.48 57.7277C108.553 57.5695 108.613 57.3903 108.618 57.2175C108.635 56.683 108.843 56.2491 109.211 55.8722C109.721 55.3485 110.218 54.8139 110.724 54.286C110.946 54.0556 111.086 53.7867 111.166 53.476C111.216 53.281 111.292 53.0884 111.385 52.9091C111.65 52.3928 112.054 52.0215 112.566 51.7407C113.386 51.2905 113.883 50.5762 114.098 49.6707C114.155 49.4341 114.28 49.2549 114.445 49.0972C114.556 48.9893 114.682 48.8942 114.812 48.81C115.19 48.5644 115.487 48.2421 115.753 47.8811C115.909 47.6696 116.076 47.4578 116.274 47.289C116.874 46.7809 117.371 46.1837 117.811 45.5376C118.068 45.1618 118.306 44.7718 118.535 44.3791C118.683 44.1289 118.584 43.9403 118.304 43.8732Z" fill="black"/>
<path d="M62.6539 62.6975C62.3567 62.273 62.0809 61.8429 61.9979 61.3136C61.9407 60.9486 61.8304 60.5924 61.7647 60.2285C61.7113 59.9346 61.6575 59.6355 61.6605 59.3388C61.666 58.8127 61.7093 58.2857 61.7458 57.7602C61.7631 57.5152 61.7007 57.3002 61.5107 57.1484C61.2407 56.9312 61.153 56.6411 61.1581 56.3204C61.1654 55.9259 61.2048 55.531 61.2223 55.1364C61.2287 54.9951 61.2384 54.8456 61.2017 54.7114C61.1405 54.4823 61.0021 54.2881 60.7524 54.244C60.4857 54.1961 60.2878 54.3384 60.1614 54.5633C60.0746 54.718 59.9855 54.8862 59.9581 55.0587C59.9093 55.364 59.8953 55.6772 59.8871 55.9876C59.8718 56.5956 59.8705 57.205 59.8626 57.813L59.8448 57.9554C59.6628 58.4409 59.672 58.9403 59.7154 59.4461C59.7385 59.7085 59.6405 59.906 59.4321 60.1004C59.131 60.3827 58.8658 60.7157 58.6394 61.062C58.4243 61.39 58.276 61.7618 58.1002 62.1148C58.0622 61.9084 58.0056 61.7029 57.9977 61.4966C57.9709 60.7797 57.9643 60.0613 57.9466 59.3425C57.9375 58.9839 57.9339 58.6225 57.901 58.2655C57.8829 58.0796 57.8367 57.8816 57.7472 57.7202C57.6362 57.5209 57.463 57.3514 57.1975 57.3927C56.9446 57.4305 56.8041 57.6042 56.7291 57.837C56.7041 57.9165 56.6848 57.9992 56.6706 58.0814C56.5305 58.9119 56.3926 59.7425 56.2444 60.629C56.0263 60.1548 55.7439 59.8376 55.214 60.088C54.9472 59.8055 54.825 59.4782 54.6863 59.162C54.5758 58.9112 54.4029 58.7204 54.1788 58.5695C54.0055 58.4527 53.8267 58.4919 53.6713 58.5912C53.5129 58.6934 53.4241 58.8426 53.47 59.0524C53.5082 59.2266 53.5191 59.4066 53.5448 59.5842C53.5874 59.8791 53.6162 60.1777 53.6785 60.4683C53.7443 60.772 53.8294 61.0737 53.9304 61.3682C54.0818 61.8086 53.8709 62.1656 53.7136 62.5769C53.545 62.3645 53.3864 62.1985 53.2668 62.0069C53.186 61.8788 53.1727 61.7111 53.1083 61.5705C53.0073 61.3536 52.8819 61.1486 52.7803 60.932C52.6645 60.6839 52.5592 60.4306 52.457 60.1781C52.4076 60.0556 52.3852 59.9235 52.3345 59.8025C52.0895 59.2185 51.7848 58.6593 51.6452 58.0324C51.6016 57.8366 51.5294 57.6406 51.4377 57.4621C51.3336 57.2614 51.1504 57.1834 50.9965 57.256C50.7997 57.3497 50.6069 57.4652 50.5388 57.6889C50.4702 57.9166 50.4108 58.1502 50.379 58.3858C50.3455 58.6344 50.3492 58.8879 50.3385 59.1394C50.3317 59.3154 50.2613 59.4386 50.075 59.4699C49.7343 59.5284 49.6111 59.7774 49.5505 60.0758C49.5084 60.2874 49.4931 60.5048 49.436 60.7123C49.2866 61.2632 49.3318 61.7803 49.6602 62.2604C49.7722 62.4242 49.8291 62.6037 49.8019 62.8033C49.7085 63.4899 49.746 64.1957 49.4967 64.861C49.4473 64.9927 49.4122 65.1469 49.4305 65.2838C49.4607 65.5154 49.4695 65.8089 49.6108 65.9567C49.8651 66.2185 49.9666 66.5114 50.0298 66.8436C50.0422 66.9134 50.0679 66.9839 50.0987 67.0476C50.2004 67.2511 50.4031 67.3679 50.5902 67.3372C50.7962 67.3023 50.899 67.1699 50.9172 66.8888C50.9314 66.6834 50.9601 66.4902 51.0781 66.3104C51.2151 66.1 51.2025 65.8653 51.0679 65.6624C50.959 65.4958 50.9818 65.3493 51.0513 65.1889C51.1039 65.0682 51.1727 64.9513 51.2076 64.8264C51.2408 64.7041 51.2741 64.5655 51.2475 64.4474C51.1576 64.0538 51.3075 63.7263 51.4683 63.3707C51.5612 63.4141 51.6215 63.4618 51.687 63.4701C51.9865 63.5049 52.1363 63.7147 52.2686 63.9474C52.4567 64.2815 52.6217 64.6303 52.8346 64.9471C53.1263 65.3839 53.4525 65.797 53.7674 66.2191L53.878 66.3098C54.021 66.4075 54.1644 66.4112 54.315 66.3203C54.514 66.2026 54.6104 66.0283 54.5635 65.807C54.4625 65.3396 54.344 64.8751 54.2289 64.4101C54.1645 64.1499 54.0897 63.8914 54.0095 63.5923C54.2849 63.67 54.4147 63.7983 54.4431 64.0281C54.4561 64.1345 54.4981 64.2389 54.5045 64.3452C54.5295 64.7633 54.8406 64.9276 55.1526 65.0887C55.2721 65.1498 55.3981 65.1237 55.4749 65.013C55.6738 64.7246 55.8664 64.4317 55.7321 64.0485C55.6964 63.9494 55.6692 63.8387 55.6728 63.7345C55.687 63.3349 55.5717 62.979 55.3462 62.6545C55.2714 62.5477 55.2253 62.4398 55.2672 62.2804C55.4715 62.3984 55.6729 62.4693 55.8118 62.6053C56.1379 62.9209 56.4395 63.2624 56.7384 63.6044C56.9746 63.8744 57.188 64.1635 57.4199 64.4374C57.5412 64.5801 57.6964 64.6801 57.8947 64.617C58.0957 64.5524 58.2091 64.4118 58.2207 64.1908C58.2276 64.0523 58.2525 63.9149 58.2718 63.756L58.3282 63.7964L58.3649 63.8968C58.4982 64.369 58.8219 64.6067 59.2951 64.6725C59.4602 64.6949 59.6244 64.7294 59.7829 64.7775C60.4258 64.973 61.0482 64.7113 61.3455 64.1133C61.3924 64.0196 61.435 63.9237 61.4998 63.7857C61.5772 63.9549 61.6374 64.0832 61.6929 64.2125C61.833 64.5315 62.0572 64.7762 62.3509 64.9545C62.6279 65.1226 62.9434 65.0703 63.1671 64.8345C63.3637 64.6265 63.4415 64.3968 63.3531 64.1106C63.1947 63.6001 62.9578 63.133 62.6539 62.6975ZM50.8085 62.0099C50.893 61.4233 50.9731 60.8736 51.0523 60.3233L51.1481 60.3265C51.2066 60.5937 51.2284 60.8763 51.3338 61.1237C51.4319 61.3513 51.6206 61.541 51.8008 61.7924L50.8085 62.0098L50.8085 62.0099ZM60.5246 62.6596C60.4281 62.7834 60.3686 62.9364 60.2805 63.0687C60.1299 63.2965 59.8831 63.3161 59.7917 63.0789C59.7063 62.8594 59.7139 62.6004 59.7003 62.3578C59.687 62.1202 59.746 61.9351 59.9766 61.7783C60.182 61.6366 60.3142 61.3884 60.53 61.1271C60.7125 61.6796 60.9139 62.1587 60.5246 62.6596Z" fill="black"/>
<path d="M43.7538 55.4966C43.5123 55.5936 43.2544 55.672 43.0423 55.8167C42.7876 55.9898 42.543 56.1995 42.346 56.4361C41.7567 57.1443 41.1886 57.8712 40.6192 58.5963C40.478 58.7768 40.3663 58.9852 40.1118 59.0161C39.8923 59.0429 39.7369 59.1657 39.6058 59.3285C39.3949 59.5887 39.1952 59.8597 38.9809 60.1177C38.8823 60.2361 38.7729 60.351 38.6486 60.4413C38.4399 60.594 38.2155 60.7259 37.9949 60.8681C37.7713 60.6188 37.6928 60.3244 37.7831 59.9814C37.8201 59.8429 37.845 59.696 37.8375 59.5546C37.8159 59.1386 37.8182 58.7188 37.4975 58.3771C37.4013 58.2751 37.3866 58.0943 37.341 57.9468C37.281 57.7532 37.2757 57.5183 37.1606 57.3706C36.9677 57.1248 36.964 56.8741 36.9951 56.5983C37.0066 56.491 37.0213 56.3836 37.0263 56.2763C37.0493 55.8029 36.989 55.3411 36.7967 54.9046C36.5846 54.4204 36.1149 54.3576 35.7702 54.7623C35.7078 54.8346 35.646 54.9068 35.5894 54.9727C35.1516 54.9586 35.0744 54.9872 34.9517 55.2985C34.8966 55.4381 34.8699 55.6037 34.8842 55.7524C34.9067 55.9651 34.9849 56.1716 35.0269 56.3837C35.1585 57.041 35.3613 57.6966 35.3913 58.3585C35.4301 59.2164 35.424 60.0842 35.29 60.9425C35.2498 61.1997 35.2793 61.4682 35.2769 61.7311C35.2753 61.9814 35.2894 62.2327 35.2692 62.4813C35.2387 62.8735 35.1748 63.2635 35.1454 63.657C35.1356 63.7955 35.1664 63.9463 35.2132 64.0799C35.2908 64.3003 35.4611 64.433 35.6948 64.458C35.9055 64.4808 36.0263 64.3474 36.1143 64.1779C36.2178 63.9756 36.3164 63.7707 36.4237 63.5691C36.4699 63.4827 36.5303 63.4042 36.5846 63.322L36.6779 63.3506C36.6726 63.5599 36.6639 63.7708 36.6625 63.9816C36.6604 64.1359 36.647 64.295 36.6774 64.4438C36.7898 64.9909 36.8268 65.5274 36.641 66.0717C36.5637 66.2998 36.5545 66.5891 36.7999 66.72C37.0678 66.8637 37.0873 67.0799 37.0967 67.3199C37.1267 68.0748 37.1542 68.8289 37.1761 69.5835C37.18 69.7146 37.1691 69.8489 37.1399 69.9763C37.0382 70.4142 37.0673 70.8542 37.065 71.2981C37.0634 71.7749 37.3374 72.0169 37.6689 72.2441C37.8698 72.3827 38.0372 72.365 38.164 72.1591C38.2872 71.9598 38.4097 71.7307 38.4307 71.5055C38.4733 71.0388 38.5283 70.5782 38.6332 70.122C38.6591 70.0063 38.6606 69.883 38.6602 69.7642C38.658 69.2965 38.65 68.829 38.6449 68.3616C38.6395 67.9194 38.6351 67.4776 38.6302 66.9781C39.0414 67.0712 39.1679 66.787 39.3112 66.5123C39.3429 66.4497 39.4208 66.4114 39.4946 66.3474C39.6185 66.5386 39.7001 66.7209 39.8327 66.8518C39.9651 66.9817 40.1504 67.0591 40.3099 67.1628L40.4153 67.2598C40.8297 67.7415 41.2738 68.2088 41.4571 68.8386C41.5713 69.2299 41.8313 69.4706 42.1753 69.6415C42.5825 69.8434 42.8609 70.1752 43.0385 70.5717C43.2833 71.1148 43.6739 71.5283 44.1125 71.9C44.3075 72.0653 44.4234 72.2503 44.5023 72.4837C44.5669 72.6748 44.6306 72.8823 44.7547 73.0338C44.9625 73.2882 45.1356 73.5471 45.2304 73.8664C45.2991 74.0999 45.5172 74.2001 45.74 74.155C45.9878 74.1036 46.0862 73.9742 46.0873 73.6919C46.0879 73.6449 46.0789 73.597 46.0713 73.5254C46.4238 73.454 46.5772 73.3229 46.5628 73.0431C46.5433 72.6603 46.501 72.2767 46.2764 71.9426C46.1691 71.7835 46.0733 71.6169 45.9757 71.4514C45.4028 70.4802 44.8433 69.5057 44.5414 68.4019C44.4689 68.1414 44.2659 67.8956 44.0692 67.696C43.7355 67.3587 43.4614 67.0032 43.2853 66.5528C43.0465 65.9438 42.7403 65.7786 42.0894 65.8113C41.8447 65.8231 41.615 65.7971 41.42 65.6184C40.9778 65.2133 40.5273 64.8172 40.0825 64.4169C40.0196 64.3602 39.9665 64.295 39.9092 64.2335C39.754 64.0695 39.6054 63.899 39.4437 63.7424C39.1162 63.4234 39.1563 62.955 39.5426 62.7003C39.7832 62.5428 40.0267 62.3913 40.2665 62.2332C40.9496 61.7838 41.3607 61.1851 41.3769 60.3335C41.3872 59.8395 41.5424 59.3883 41.9908 59.0966C42.0811 59.0379 42.1543 58.9545 42.2405 58.8902C42.6791 58.5573 42.9506 58.1167 43.0731 57.5833C43.1209 57.3771 43.2389 57.2245 43.3652 57.059C43.6337 56.7078 43.8697 56.3314 44.1083 55.958C44.1804 55.8462 44.2137 55.7142 44.1091 55.5907C44.0119 55.4752 43.8883 55.4422 43.7538 55.4966Z" fill="black"/>
<path d="M99.4014 59.2597C99.4821 59.0734 99.4785 58.8763 99.381 58.7028C99.2239 58.4219 99.0556 58.1452 98.8698 57.8816C98.5662 57.4549 98.3494 57.0127 98.3162 56.4666C98.2632 55.6074 97.9066 54.8579 97.2529 54.2929C96.9732 54.0516 96.8343 53.7953 96.8066 53.4415C96.789 53.2167 96.7377 52.9926 96.5643 52.8159C96.1687 52.4136 95.7838 52.0024 95.2149 51.8317C95.0161 51.7726 94.9764 51.5606 95.1254 51.4057C95.2167 51.3116 95.3357 51.2467 95.4344 51.1591C95.6128 51.002 95.8042 50.853 95.9562 50.6717C96.1452 50.4455 96.3598 50.2688 96.6313 50.1529C96.7363 50.1078 96.8291 50.0266 96.9178 49.9502C97.2196 49.6906 97.3789 49.3456 97.5029 48.9761C97.5751 48.7609 97.5726 48.5525 97.5014 48.3415C97.4554 48.2051 97.4218 48.0614 97.3541 47.9363C97.2586 47.7608 97.1715 47.5504 97.0185 47.4431C96.7294 47.2389 96.5135 46.9717 96.2674 46.7303C96.1178 46.582 96.0474 46.4574 96.1246 46.2315C96.2386 45.9002 96.1117 45.6546 95.8115 45.474C95.48 45.2769 95.1396 45.2297 94.7826 45.3974C94.4845 45.5366 94.1778 45.5262 93.8696 45.4457C93.3857 45.3186 93.1112 45.4015 92.8704 45.8324C92.6262 46.2708 92.4279 46.7358 92.2111 47.1893C92.1769 47.2604 92.1477 47.3343 92.1095 47.4233C91.8904 47.2954 91.8608 47.0901 91.7948 46.9023C91.6476 46.4844 91.5099 46.0623 91.3313 45.6587C91.2254 45.4188 91.0324 45.3466 90.8358 45.3882C90.6209 45.4324 90.4563 45.6297 90.4443 45.886C90.439 45.9882 90.4737 46.0936 90.4928 46.1972C90.5479 46.5025 90.6215 46.8052 90.6562 47.1135C90.7242 47.7078 90.7237 48.3134 90.8365 48.8985C90.961 49.5405 91.0026 50.1786 91.0031 50.8287C91.0038 51.0491 91.0777 51.2727 91.1397 51.4892C91.2192 51.768 91.4277 51.915 91.6993 51.9955C92.0371 52.0945 92.154 52.2837 92.0967 52.6399C92.0652 52.8411 92.0043 53.037 91.9731 53.2388C91.9194 53.5849 91.9711 53.9179 92.209 54.1854C92.4665 54.4758 92.5417 54.792 92.517 55.1772C92.4978 55.4804 92.5346 55.8088 92.6371 56.0933C92.7693 56.4603 92.8535 56.8274 92.8897 57.2101C92.9039 57.3653 92.9201 57.5252 92.972 57.6692C93.014 57.7838 93.0925 57.9081 93.1909 57.9767C93.5596 58.2331 94.0206 58.0522 94.0987 57.5975C94.1434 57.3335 94.1218 57.0449 94.0685 56.781C93.9862 56.3716 93.9868 55.9808 94.072 55.5707C94.1341 55.2727 94.1099 54.9526 94.1015 54.6435C94.0958 54.4572 94.0454 54.2733 94.0239 54.1394C94.1205 54.1828 94.2395 54.2316 94.3563 54.2865C94.9092 54.5457 95.3539 54.9416 95.7577 55.392C95.9089 55.5605 96.078 55.7251 96.268 55.8439C96.6749 56.0979 96.8873 56.4551 96.9656 56.9203C97.0032 57.1423 97.0569 57.3806 97.176 57.5635C97.4061 57.9183 97.5899 58.2899 97.7566 58.6771C97.9103 59.0312 98.1322 59.3492 98.4756 59.5538C98.8367 59.769 99.2368 59.641 99.4014 59.2597ZM94.4531 49.6769C94.3995 49.866 94.2823 50.0362 94.1833 50.2323C94.0882 50.1924 94.0086 50.1827 93.9671 50.1375C93.7804 49.9337 93.5744 49.764 93.3245 49.6362C93.2331 49.5895 93.1977 49.4352 93.1247 49.309C93.47 49.1447 93.6289 48.9075 93.6846 48.5743C93.7802 48.0118 93.8852 47.933 94.5994 47.8462C94.1615 48.3063 94.256 48.7204 94.4681 49.1613C94.5357 49.3012 94.4987 49.5138 94.4531 49.6769Z" fill="black"/>
<path d="M97.6593 50.8123C97.4067 50.9416 97.3352 51.1531 97.4467 51.4087C97.5761 51.7057 97.8025 51.8402 98.1099 51.7435C98.3783 51.6591 98.6224 51.7083 98.8843 51.7469C99.2784 51.8057 99.6311 52.0861 100.074 51.9314C100.065 52.0279 100.071 52.0902 100.053 52.144C99.9383 52.4967 99.9441 52.8466 100.012 53.2092C100.042 53.3742 99.9999 53.5659 99.9461 53.7309C99.8741 53.9534 99.8803 54.1587 99.9859 54.357C100.07 54.5152 100.161 54.6748 100.279 54.8072C100.42 54.9647 100.458 55.1105 100.413 55.324C100.318 55.7845 100.364 56.2321 100.689 56.6129C100.742 56.6747 100.79 56.755 100.803 56.8327C100.888 57.3405 101.043 57.8541 101.02 58.3575C100.989 59.0579 101.117 59.7182 101.278 60.3813C101.352 60.6848 101.482 60.976 101.727 61.186C101.962 61.3867 102.185 61.3167 102.279 61.024C102.301 60.9568 102.305 60.883 102.311 60.811C102.34 60.4543 102.368 60.0971 102.393 59.7384C102.406 59.5478 102.434 59.3549 102.416 59.1667C102.337 58.3572 102.253 57.5472 102.152 56.7404C102.095 56.2925 102.073 55.8576 102.256 55.4319C102.297 55.3358 102.327 55.2192 102.313 55.1189C102.265 54.7762 102.236 54.4239 102.037 54.1216C101.945 53.9834 101.921 53.8377 101.97 53.6775C102.116 53.1962 102.038 52.7322 101.876 52.2694C101.801 52.0585 101.756 51.8361 101.697 51.6195L101.769 51.5386C101.903 51.5686 102.054 51.5677 102.167 51.6338C102.65 51.9159 103.147 51.8466 103.62 51.6638C103.882 51.5619 104.094 51.5592 104.336 51.6705C104.649 51.8152 104.98 51.8528 105.32 51.7921C105.798 51.705 105.943 51.5025 105.864 51.0382C105.944 50.948 106.032 50.865 106.104 50.7695C106.298 50.5061 106.264 50.2411 105.987 50.0589C105.852 49.969 105.686 49.9028 105.526 49.8793C105.315 49.8485 105.095 49.8547 104.882 49.8729C104.729 49.886 104.606 49.8601 104.482 49.7663C104.241 49.581 103.962 49.5337 103.665 49.5934C103.443 49.6385 103.222 49.6898 102.995 49.7394C102.607 49.3935 102.509 49.3841 101.97 49.5799C101.739 49.6628 101.508 49.7766 101.203 49.7157C101.22 49.5228 101.217 49.3308 101.258 49.1502C101.38 48.6074 101.423 48.0577 101.403 47.5065C101.382 46.9066 101.368 46.3107 101.525 45.7236L101.531 45.6519C101.503 45.2336 101.43 44.8414 101.016 44.6118C100.686 44.4296 100.666 44.3673 100.78 44.0095C100.897 43.6439 101.032 43.2836 101.13 42.9133C101.186 42.6979 101.225 42.4629 101.201 42.2447C101.15 41.8065 100.803 41.6252 100.388 41.788C100.016 41.9338 99.8401 42.232 99.7618 42.6061C99.7057 42.8742 99.6395 43.1401 99.5759 43.4083C99.4132 44.0949 99.2327 44.7773 99.2983 45.4982C99.322 45.7562 99.279 46.0214 99.2476 46.2818C99.2 46.6888 99.177 47.0956 99.2725 47.4976C99.337 47.7723 99.333 48.0415 99.265 48.3158C99.1737 48.6877 99.2064 49.0471 99.3624 49.405C99.5374 49.8066 99.4401 49.984 99.023 50.0775C98.7955 50.1281 98.5816 50.1968 98.4336 50.3899C98.3032 50.5599 98.1285 50.6509 97.9272 50.7075C97.8353 50.7334 97.7441 50.7689 97.6593 50.8123Z" fill="black"/>
<path d="M34.7737 67.6817C34.4215 68.0748 34.149 68.1375 33.6602 67.9337C33.516 67.8738 33.3767 67.8024 33.2319 67.746C32.9781 67.6463 32.7355 67.648 32.549 67.8825C32.4358 68.0239 32.2955 68.0517 32.1322 68.0083C31.8577 67.9343 31.6379 68.0338 31.4486 68.2218C31.3036 68.3643 31.1747 68.5244 31.0254 68.6613C30.8191 68.8486 30.573 68.7714 30.5101 68.5007C30.4887 68.41 30.4855 68.3081 30.5042 68.2169C30.5422 68.0298 30.5957 67.8457 30.6516 67.6634C30.7223 67.4353 30.8268 67.2139 30.8725 66.981C30.9768 66.4451 30.8463 66.2201 30.3576 66.0302C30.3023 66.0086 30.2467 65.9885 30.1581 65.9551C30.1195 65.4886 30.3517 65.1584 30.6024 64.833C30.9387 64.3972 31.2801 63.9647 31.5972 63.5148C31.7747 63.2626 31.8663 62.9758 31.6417 62.6922C31.8324 62.5038 32.0435 62.4018 32.2835 62.3515C32.4829 62.3093 32.6822 62.2664 32.8794 62.2151C33.378 62.0853 33.7814 61.8292 33.9978 61.3405C34.0892 61.1328 34.1051 60.9153 33.9488 60.7288C33.8059 60.5572 33.6133 60.5069 33.3962 60.5647C33.0151 60.6657 32.6309 60.7558 32.255 60.8741C32.0846 60.9282 31.9446 60.9604 31.7884 60.8385C31.6172 60.7052 31.4169 60.6926 31.2068 60.7526C30.6856 60.9027 30.2469 61.185 29.917 61.6135C29.8151 61.7459 29.7289 61.9442 29.7425 62.1032C29.7785 62.5044 29.6046 62.7331 29.2593 62.8768L29.1037 62.9652C28.448 63.3192 28.2791 63.6544 28.3397 64.3888C28.3658 64.6954 28.3963 65.0251 28.3159 65.3125C28.2 65.7191 28.1779 66.1087 28.2439 66.5171C28.2883 66.7868 28.2354 67.0395 28.0974 67.2778C28.0012 67.4432 27.8873 67.6082 27.8392 67.7897C27.7756 68.0271 27.732 68.2823 27.7453 68.5271C27.7609 68.8323 27.995 68.9824 28.2961 68.94C28.3501 68.9325 28.4024 68.9174 28.4889 68.8984C28.4415 69.046 28.3856 69.1549 28.3727 69.2699C28.3476 69.4931 28.3118 69.7239 28.3407 69.9425C28.3856 70.2844 28.5791 70.4063 28.9265 70.358C29.0927 70.3356 29.2552 70.292 29.42 70.2595C29.7627 70.1933 29.8942 70.2824 29.9011 70.6312C29.9086 70.9529 30.0282 71.2051 30.3215 71.3241C30.5926 71.4357 30.6873 71.6377 30.7492 71.8933C30.7883 72.0555 30.8416 72.2183 30.9211 72.3644C30.981 72.4743 31.078 72.5763 31.1817 72.6488C31.3601 72.7753 31.565 72.7487 31.688 72.5716C31.7939 72.4173 31.8792 72.2387 31.9313 72.0587C32.0107 71.7833 32.04 71.4924 32.1163 71.2162C32.1771 70.9993 32.2562 70.7824 32.3613 70.5843C32.4528 70.4109 32.5924 70.31 32.8307 70.3451C32.9759 70.3667 33.1593 70.2914 33.2905 70.2055C33.4474 70.103 33.586 69.9575 33.6958 69.8044C33.8866 69.5362 34.1271 69.4213 34.4535 69.4047C35.2027 69.3667 35.7627 68.7426 35.7201 67.9941C35.7119 67.8398 35.6394 67.6591 35.5353 67.5479C35.3144 67.3098 35.053 67.3699 34.7737 67.6817Z" fill="black"/>
<path d="M90.2938 53.5033C89.9696 53.2496 89.8418 52.9668 89.9351 52.568C89.9939 52.3119 90.0554 52.0513 90.0693 51.7903C90.1052 51.1491 89.9621 50.5559 89.5338 50.0509C89.4441 49.9452 89.3823 49.8069 89.3385 49.6736C89.2428 49.3904 89.0907 49.1708 88.8293 49.0061C88.3672 48.7144 87.8895 48.4914 87.3396 48.4234C86.5832 48.3311 85.949 48.5558 85.5154 49.1762C85.2369 49.5752 85.0567 50.042 84.8256 50.4745C84.7539 50.6082 84.6745 50.7466 84.5688 50.8518C84.1007 51.3172 83.7719 51.8444 83.8116 52.5336C83.8341 52.937 83.7719 53.3045 83.5767 53.6735C83.3264 54.1476 83.4308 54.7549 83.8031 55.0643C84.2945 55.4733 84.4828 56.0024 84.5341 56.6098C84.554 56.8481 84.5905 57.0848 84.6257 57.3727C84.7016 57.5759 84.768 57.8349 84.8917 58.0627C85.0351 58.3274 85.2926 58.4264 85.528 58.3081C85.8027 58.1687 86.0348 58.2594 86.285 58.3491C86.4844 58.4211 86.6886 58.4849 86.8967 58.5258C87.0192 58.5504 87.1093 58.5848 87.1933 58.6874C87.4618 59.0148 87.7192 59.0874 88.1165 58.9162C88.4213 58.7842 88.6989 58.5952 89.0479 58.5846C89.125 58.5824 89.2138 58.5329 89.2719 58.4785C89.5684 58.2015 89.9237 57.9587 90.1347 57.626C90.5111 57.0326 90.8345 56.3975 91.1128 55.7501C91.279 55.3633 91.3694 54.93 91.1572 54.4957C90.9558 54.0833 90.6386 53.7745 90.2938 53.5033ZM87.9978 55.2538C88.2496 55.5746 88.2397 55.5828 88.2823 55.9435C88.0709 56.0118 87.8489 56.0832 87.651 56.1456C87.4253 55.9209 87.2253 55.7192 87.023 55.5201C86.8519 55.3538 86.6592 55.2361 86.4104 55.3032C86.2279 55.352 86.1404 55.2568 86.0773 55.1124C86.0102 54.9591 85.9482 54.8027 85.8802 54.6497C85.6889 54.2202 85.708 53.8034 85.9849 53.4232C86.2554 53.0515 86.3153 52.68 86.1399 52.2434C86.0013 51.8985 86.2074 51.6297 86.4784 51.4142C86.4754 51.6509 86.4674 51.888 86.4731 52.1242C86.483 52.6044 86.7483 52.8995 87.1746 53.0716C87.2748 53.1118 87.3806 53.1364 87.4803 53.1776C87.7368 53.2826 87.8106 53.4029 87.782 53.6796C87.7689 53.8101 87.7373 53.9393 87.7145 54.0697C87.6392 54.5049 87.7182 54.8987 87.9978 55.2538Z" fill="black"/>
<path d="M25.579 65.644C25.4692 65.2062 25.4525 64.7687 25.5182 64.3239C25.567 63.9951 25.5566 63.6609 25.3443 63.3931C25.1085 63.0957 24.998 62.7711 24.9851 62.4016L24.9543 62.261C24.8771 61.9957 24.7213 61.892 24.4456 61.926C24.2001 61.9579 23.9905 62.0608 23.8166 62.2419C23.7559 62.3058 23.6717 62.3719 23.5895 62.3847C23.1586 62.452 23.0259 62.6049 23.1697 63.0037C23.3244 63.4359 23.3626 63.8645 23.2979 64.311C23.2877 64.3815 23.2971 64.4542 23.2976 64.5266C23.2998 64.7908 23.3819 64.9985 23.6728 65.0603C23.8578 65.0996 23.9296 65.2407 23.9353 65.403C23.9402 65.5559 23.9106 65.7111 23.8853 65.8633C23.8427 66.1234 23.776 66.3798 23.7475 66.6403C23.7016 67.069 23.8231 67.4265 24.2427 67.6248C24.4068 67.7025 24.5104 67.8285 24.541 68.0051C24.6023 68.3582 24.6786 68.7103 24.7062 69.0663C24.7259 69.3096 24.7323 69.5495 24.8856 69.7483C25.0254 69.9288 25.0857 70.1304 25.0828 70.3509C25.0798 70.6213 25.1842 70.8403 25.3734 71.0225C25.5447 71.1866 25.6379 71.3882 25.6818 71.619C25.7238 71.8305 25.7736 72.041 25.8198 72.2522L25.8101 72.2543C25.864 72.5004 25.9104 72.749 25.9742 72.9932C26.0513 73.2885 26.1801 73.5593 26.4441 73.7353C26.7361 73.9294 27.0141 73.8383 27.1336 73.5117C27.1645 73.4229 27.1893 73.3214 27.1793 73.2297C27.1499 72.9453 27.1356 72.6522 27.0548 72.3804C26.8614 71.7219 26.7882 71.0667 26.9793 70.3958C27.0124 70.2831 27.0026 70.1583 27.0198 70.0394C27.0949 69.5437 26.9444 69.117 26.6244 68.7422L26.578 68.687C26.4135 68.4841 26.3699 68.265 26.4612 68.0134C26.5346 67.8111 26.5761 67.596 26.656 67.396C26.8378 66.9464 26.6891 66.4483 26.1012 66.2568C25.7749 66.1508 25.6524 65.9386 25.579 65.644Z" fill="black"/>
<path d="M23.1244 60.8864C23.4472 61.0502 23.7841 61.0616 24.0855 60.8709C24.3966 60.6744 24.4972 60.3548 24.4454 59.9917C24.3759 59.5041 24.3413 59.0191 24.3537 58.5245C24.3667 57.9924 23.9909 57.747 23.4452 57.9487C23.4382 57.7729 23.4395 57.6319 23.425 57.4921C23.3855 57.0771 23.0054 56.7661 22.661 56.884C22.3983 56.9738 22.1693 57.1281 22.0245 57.3827C21.8629 57.6673 21.8695 58.055 22.1034 58.2838C22.3123 58.4859 22.3078 58.6854 22.2369 58.9334C22.1642 59.1861 22.0996 59.4458 22.0782 59.7056C22.0507 60.0584 22.1634 60.3723 22.4929 60.5596C22.6993 60.6761 22.9135 60.7793 23.1244 60.8864Z" fill="black"/>
</g>
<path d="M17.3946 37.8496C17.7737 37.8433 18.3523 37.2618 18.6373 36.9921C16.0416 34.4697 15.1626 28.4409 15.0476 25.7417C15.0265 25.4765 15.5476 25.3166 15.585 25.7881C16.4372 36.5437 20.4909 37.5569 21.721 38.1118C22.705 38.5557 22.1648 39.2232 21.7718 39.5014L16.4108 41.8239C15.8833 44.149 15.0297 47.597 14.6575 50.3842C16.74 52.1169 19.665 53.7038 20.8671 54.2807C21.7149 53.8775 24.0963 53.0463 26.8402 52.9475C30.2701 52.824 31.5957 56.4552 32.2448 56.7892C32.7642 57.0565 32.8738 56.8679 32.8637 56.7402L32.6158 52.4899L36.7638 52.0723C36.7638 52.0723 33.0584 40.8607 32.1184 40.2235C31.805 40.0111 27.0015 39.265 27.0015 39.265C26.6578 38.6695 26.7313 38.1003 26.8282 37.8257C28.1743 37.6004 29.3239 36.0168 29.6246 35.3209C30.5039 35.1919 32.1246 34.8382 31.5723 34.4549C31.0201 34.0717 30.2544 33.1657 30.3102 32.7461C30.1195 32.3362 32.4557 32.1313 32.4557 32.1313C32.4557 32.1313 31.6472 30.5349 31.7385 29.816C33.1652 29.1099 34.5344 28.0525 34.5344 28.0525C32.4171 27.1528 31.3583 26.1395 31.4869 25.8921C35.3248 24.3308 36.3461 23.2239 36.377 22.8656L32.4333 21.3693L35.5891 17.4127L30.8384 16.9588L33.2044 11.6415L28.5932 13.697C27.6047 11.6997 27.5973 7.48962 27.2732 7.5153C22.8794 10.4432 22.962 11.86 22.461 11.8997C22.1534 11.924 21.1189 9.93034 18.4344 7.8598C18.4265 10.0053 18.16 14.1264 17.1572 13.4467C15.9038 12.5971 12.3365 12.1088 12.6157 12.2646C12.8391 12.3893 14.439 15.4412 14.3092 17.1714C14.1618 17.183 11.7951 17.2519 8.45072 18.0803C11.3462 20.1935 11.4627 20.9156 12.3852 22.4537C9.73899 24.2349 8.70473 25.0285 8.19009 26.0182C12.2327 26.1427 12.7338 27.4769 13.2221 28.5254C11.5863 29.9597 10.7023 31.4531 10.7352 31.5691C10.7682 31.6851 14.3577 32.3792 14.447 32.7576C14.5363 33.136 13.8379 35.8482 13.9756 35.7899C14.1133 35.7315 16.0337 35.5675 16.9766 35.4928C16.9293 36.2675 17.1377 37.526 17.3946 37.8496Z" fill="black"/>
<path d="M38.1277 51.6973L37.0173 51.9039L36.1659 52.3865L40.5655 55.8928L42.7513 55.0376C42.7513 55.0376 42.3798 52.2204 42.7372 51.8659C43.2186 51.205 48.6882 51.3477 50.5676 50.771C50.9845 50.6431 52.2222 49.5724 52.9912 48.7998C52.8908 47.5327 51.7946 46.048 51.088 45.3627C52.6534 43.8628 53.7909 42.3019 54.2036 41.6465C55.2977 41.2336 56.0284 40.5767 55.999 39.6064C55.9696 38.6362 55.3583 38.0066 55.0563 37.813C55.3878 36.3832 55.7323 32.8728 54.4586 30.2694C52.8664 27.0152 49.5029 23.4861 42.92 23.8595C37.6536 24.1581 34.3807 29.231 33.4025 31.7302C33.2467 32.128 33.4547 32.7639 33.4387 33.6844C32.777 35.8125 32.7578 36.3181 32.8751 37.0501C32.9924 37.7821 34.2 38.4277 34.3407 39.4544C34.3687 39.808 33.875 40.0646 33.667 40.3084C33.648 40.5669 33.6476 41.3359 33.8979 42.0989C34.2107 43.0527 34.8683 43.1192 35.4328 43.1338C35.7819 43.1428 35.8223 42.9349 35.8173 42.7475C35.8173 42.7475 35.5543 42.3221 35.4054 42.0388C35.1959 41.6402 35.2834 41.2478 35.2834 41.2478C35.2834 41.2478 35.4439 41.0275 35.6959 41.2151C38.5215 48.434 46.1486 46.6436 46.4278 46.7994C46.6512 46.924 46.4734 47.2505 46.3566 47.3981C44.6461 47.8895 39.4878 46.9787 39.4501 47.0557C38.45 49.1039 38.1518 51.0035 38.1277 51.6973Z" fill="black"/>
<path d="M21.566 24.9287C19.4665 24.4783 18.2151 24.9273 17.4405 25.2556C16.6659 25.5838 16.4102 23.479 16.7729 22.8177C17.1357 22.1563 17.9553 20.9745 19.1104 20.883C20.5543 20.7686 21.1076 21.0353 21.7156 21.9516C22.3592 22.9216 22.6217 25.1552 21.566 24.9287Z" fill="white"/>
<path d="M27.0903 21.674C25.7386 21.4549 24.7802 21.7088 24.1908 21.7555C23.2278 21.8318 23.1851 23.5987 23.7247 24.1053C24.045 24.4061 25.0123 23.8896 27.4904 24.1035C28.0278 24.1498 28.4561 25.0648 28.8832 24.4675C29.2249 23.9897 29.0956 23.1559 28.9882 22.7987C28.8062 22.4968 28.1717 21.8493 27.0903 21.674Z" fill="white"/>
<path d="M42.1433 33.1429C42.2478 35.2103 38.8177 35.5809 36.8894 35.6942C36.5357 35.7208 36.3327 36.1534 36.5291 36.7605C37.1455 38.303 39.1332 40.9606 42.1528 39.2505C45.1723 37.5405 44.0638 34.5524 43.132 33.2721C42.859 32.8193 42.1153 32.7893 42.1433 33.1429Z" fill="white"/>
<path d="M52.6839 34.4427C48.6374 35.1666 46.8586 33.649 46.475 32.7997C45.0203 33.1522 44.6061 38.4038 48.2867 38.8238C51.9672 39.2439 53.2777 36.3231 52.6839 34.4427Z" fill="white"/>
<defs>
<clipPath id="clip0">
<rect width="114.49" height="33.6066" fill="white" transform="translate(3.5293 53.8633) rotate(-12.3558)"/>
</clipPath>
</defs>
</svg>
