<svg width="122" height="59" viewBox="0 0 122 59" fill="none" xmlns="http://www.w3.org/2000/svg">
<g clip-path="url(#clip0)">
<path d="M84.1655 36.374C84.0812 35.7761 83.8054 35.2948 83.3763 34.8764C82.939 34.4504 82.6571 33.9484 82.7744 33.3011L82.784 33.1576C82.8122 32.5913 82.6376 32.1121 82.1534 31.7886C81.7898 31.545 81.6312 31.2089 81.6286 30.7829C81.6258 30.2228 81.4796 29.735 81.0526 29.3259C80.6828 28.9706 80.534 28.5217 80.6476 27.9808C80.7441 27.5264 80.7686 27.0533 80.7908 26.5874C80.8079 26.2244 80.7291 25.8613 80.5269 25.556C80.3625 25.3069 80.3356 25.0539 80.342 24.7719C80.3492 24.4742 80.3238 24.1741 80.2982 23.877C80.2788 23.6482 80.1618 23.4678 79.9627 23.3515C79.7011 23.1993 79.5711 22.9668 79.5453 22.6755C79.5174 22.3407 79.5097 22.0053 79.2715 21.7291C79.2295 21.6811 79.2287 21.5934 79.2181 21.5223C79.1363 20.948 78.8786 20.4532 78.545 19.9897C78.3533 19.7223 78.2316 19.4236 78.1947 19.0952C78.1225 18.458 77.9471 17.8447 77.7052 17.2578C77.4447 16.6266 77.12 16.0233 76.8387 15.4003C76.741 15.185 76.6576 14.9541 76.6214 14.7223C76.5478 14.2495 76.5016 13.7715 76.4621 13.2934C76.415 12.7173 76.4329 12.1446 76.5607 11.5756C76.6825 11.0256 76.7857 10.4709 76.889 9.91682C76.9257 9.71673 76.9497 9.51284 76.9536 9.3096C76.9586 9.06514 76.9045 8.83142 76.7179 8.65101C76.47 8.41136 76.2127 8.41278 76.0197 8.70135C75.8632 8.93861 75.723 9.20104 75.6426 9.47222C75.4843 10.0053 75.2791 10.512 75.0034 10.994C74.8113 11.33 74.7764 11.6881 74.8446 12.0733C74.9786 12.8217 74.9618 13.554 74.5479 14.2332C74.43 14.4269 74.3356 14.6367 74.2524 14.8483C74.1682 15.0588 74.0792 15.277 74.0537 15.4988C73.992 16.0217 73.9163 16.5514 73.941 17.0752C73.9744 17.7722 73.9409 18.4614 73.9066 19.1565C73.8779 19.7337 73.7231 20.2367 73.428 20.7134C73.241 21.0154 73.1365 21.3476 73.1026 21.6965C73.0616 22.1145 73.0377 22.5332 73.0191 22.9529C73.0111 23.1438 73.0192 23.3377 73.0424 23.5268C73.1556 24.4314 73.2859 25.3339 73.3898 26.2383C73.414 26.4529 73.4841 26.6817 73.3804 26.9038L73.3064 26.8629C73.0045 26.594 72.8955 26.2301 72.7771 25.8602C72.5007 24.9928 72.2171 24.1291 72.0574 23.2296C72.0089 22.958 71.9392 22.6903 71.8885 22.4192C71.8473 22.1973 71.7193 22.0539 71.5242 21.9588C71.4499 21.9231 71.3741 21.8913 71.2887 21.8527C71.2657 21.684 71.2432 21.5182 71.2204 21.3532C71.1637 20.9507 71.0293 20.5946 70.7008 20.3184C70.5837 20.2209 70.5031 20.0436 70.4709 19.8893C70.3872 19.4914 70.3371 19.0853 70.2818 18.6817C70.2342 18.3476 70.0576 18.1063 69.779 17.9306C69.708 17.8868 69.6218 17.8573 69.5653 17.8001C69.4771 17.7109 69.3558 17.6121 69.3386 17.5031C69.2746 17.1147 69.2234 16.7205 69.2157 16.3279C69.2093 16.0185 69.2826 15.7084 69.3031 15.3976C69.3395 14.8354 69.3833 14.2739 69.3859 13.7112C69.3874 13.4235 69.2092 13.2616 68.9559 13.2081C68.713 13.1549 68.5339 13.2197 68.4102 13.4998C68.197 13.9805 68.0074 14.4743 67.846 14.9735C67.7752 15.195 67.7811 15.4458 67.7798 15.6837C67.7786 16.0828 67.7708 16.481 67.5504 16.8312C67.3121 17.2104 67.2277 17.6268 67.2097 18.0655C67.2072 18.1378 67.1862 18.2098 67.1676 18.318C66.8681 17.8662 66.7793 17.835 66.3863 18.0251C66.3568 17.9613 66.3358 17.8918 66.2964 17.8352C66.12 17.5814 65.8913 17.586 65.7334 17.8544C65.6671 17.9657 65.6023 18.0912 65.5853 18.2174C65.5218 18.6924 65.457 19.1684 65.4305 19.6455C65.4051 20.1238 65.4447 20.6055 65.4229 21.0838C65.374 22.1368 65.4002 23.1953 65.1796 24.2362C65.1525 24.3631 65.1616 24.4989 65.1656 24.63C65.1898 25.335 65.3564 26.0051 65.647 26.6473C65.9937 27.4113 66.1535 28.2207 66.205 29.054C66.2395 29.5924 66.0225 30.0614 65.778 30.5189C65.3905 31.2421 65.3163 31.9928 65.5571 32.7808C65.6739 33.1642 65.8377 33.517 66.0733 33.8414C66.4815 34.4013 66.7209 35.0137 66.6183 35.7245C66.601 35.8428 66.5965 35.9655 66.6077 36.0838C66.6345 36.383 66.6858 36.6708 66.8801 36.9266C66.9906 37.0732 67.067 37.2616 67.1081 37.4432C67.2698 38.1576 67.4096 38.8762 67.5649 39.592C67.592 39.7187 67.6442 39.8437 67.7053 39.9586C67.7925 40.1257 67.9276 40.2486 68.1266 40.251C68.3422 40.2537 68.4386 40.0918 68.5129 39.924C68.646 39.6228 68.7172 39.3066 68.6788 38.977C68.6105 38.3844 68.6832 37.8071 68.793 37.2266C68.842 36.9624 68.8231 36.6754 68.7825 36.4072C68.7024 35.8809 68.4776 35.3995 68.2594 34.918C68.2058 34.8 68.1567 34.6692 68.1514 34.5422C68.1264 33.9166 68.2341 33.3087 68.6015 32.7974C68.9032 32.3743 68.9754 31.9553 68.803 31.4786C68.7626 31.365 68.7453 31.2427 68.6958 31.134C68.5411 30.7978 68.5125 30.4471 68.5151 30.0814C68.5177 29.5788 68.5336 29.0703 68.4666 28.574C68.3556 27.7501 68.3205 26.9282 68.3382 26.1003C68.3514 25.5256 68.2349 24.9838 67.9226 24.487C67.6191 24.0038 67.5195 23.4686 67.5855 22.8978C67.6182 22.6127 67.6075 22.3234 67.6363 22.0378C67.6681 21.7215 67.6665 21.3935 67.8746 21.0334C67.9341 21.1986 67.9889 21.3016 68.0075 21.4097C68.0655 21.765 68.1178 22.1207 68.1592 22.4767C68.2144 22.9389 68.3958 23.3059 68.8547 23.4833C69.0584 23.561 69.1868 23.7097 69.2665 23.9091C69.3474 24.1092 69.4945 24.2822 69.6905 24.3251C70.1549 24.4278 70.305 24.7753 70.4304 25.1606L70.4639 25.2631C70.7005 25.9457 70.9731 26.6022 71.4599 27.161C71.6565 27.3863 71.7466 27.7074 71.8734 27.9896C71.9578 28.1742 71.9871 28.3915 72.1002 28.5536C72.3238 28.8761 72.3765 29.2334 72.4195 29.6065C72.5135 30.4004 72.8214 30.8034 73.5384 30.7894C73.7155 30.7857 73.8331 30.8685 73.8877 31.0405C73.9433 31.2108 74.0044 31.3799 74.065 31.5492C74.2232 31.991 74.3932 32.4287 74.7602 32.7485C74.9746 32.9354 75.2143 33.0179 75.4896 32.8872C75.7161 32.7788 75.8602 32.4915 75.8217 32.1885C75.788 31.9144 75.7502 31.6382 75.6761 31.3737C75.4742 30.6527 75.5445 29.9505 75.7536 29.245C75.8134 29.0435 75.8463 28.8193 75.8297 28.6102C75.7989 28.2292 75.734 27.8493 75.6632 27.4724C75.5354 26.7924 75.5186 26.1343 75.9577 25.5433L76.0111 25.4494C76.3521 24.674 76.4697 23.891 76.1135 23.0836C75.8407 22.4632 75.8147 21.8062 75.8502 21.1431C75.8569 21.0133 75.8812 20.8842 75.8983 20.7543C75.9891 20.8855 76.0173 21.0142 76.0455 21.1428C76.1333 21.54 76.3288 21.8512 76.7222 22.0136C76.8205 22.0542 76.9102 22.1197 76.9967 22.1842C77.2088 22.3438 77.3473 22.5458 77.331 22.825C77.3169 23.0882 77.3021 23.351 77.2806 23.6144C77.2393 24.1271 77.1282 24.6454 77.1652 25.1518C77.218 25.8704 77.4074 26.5714 77.8259 27.1856C77.9116 27.3127 78.0001 27.4493 78.0415 27.595C78.1339 27.9303 78.2186 28.2702 78.2712 28.6134C78.4465 29.7713 78.979 30.7159 79.908 31.4318C80.149 31.6165 80.2179 31.8513 80.2097 32.1544C80.1991 32.5701 80.2232 32.9907 80.2811 33.4025C80.3423 33.8451 80.5964 34.1471 81.0658 34.2187L81.1397 34.2686C81.1881 34.4896 81.2415 34.7234 81.2892 34.9577C81.3538 35.269 81.515 35.5145 81.7943 35.6666C82.0138 35.7872 82.2389 35.9086 82.4751 35.9888C82.7165 36.0715 82.817 36.2232 82.8378 36.465C82.8567 36.6917 82.8944 36.9165 82.9284 37.1422C82.9575 37.3314 83.0402 37.4856 83.2411 37.5406C83.4271 37.5914 83.5271 37.4632 83.6323 37.3456L83.699 37.3266L83.7545 37.3659C84.0043 37.5274 84.1439 37.5333 84.3022 37.3902C84.4595 37.2472 84.4642 37.088 84.3409 36.8393C84.2673 36.6912 84.1881 36.5341 84.1655 36.374Z" fill="black"/>
<path d="M28.5595 49.9726C28.396 49.5533 28.1329 49.2004 27.7514 48.9424C27.2919 48.629 26.9642 48.2222 26.8076 47.6743C26.6274 47.0452 26.1701 46.7048 25.5429 46.6077C25.3367 46.5753 25.18 46.5048 25.0513 46.3511C24.8977 46.1677 24.73 45.9935 24.5929 45.7985C24.4188 45.5515 24.1789 45.4121 23.897 45.4114C23.5679 45.4094 23.3879 45.2488 23.2573 44.9834C23.209 44.8863 23.152 44.7932 23.1137 44.6923C22.8612 44.0433 22.3866 43.6312 21.7367 43.4172C21.5291 43.3484 21.4044 43.2166 21.2766 43.0474C21.0171 42.7048 20.7675 42.3335 20.4378 42.0715C19.9682 41.6986 19.4259 41.4509 18.825 41.8552L18.7369 41.8504C18.6208 41.7007 18.508 41.5304 18.3703 41.383C18.0346 41.0263 17.866 41.0252 17.5061 41.3533L17.4504 41.3691C17.3985 41.3028 17.3422 41.2293 17.2838 41.1564C17.0809 40.9048 16.8904 40.6407 16.6705 40.4045C16.4732 40.1926 16.2511 40.0097 15.9145 40.1002C15.8288 40.1234 15.7209 40.062 15.5523 40.0236C15.6973 39.867 15.7686 39.7686 15.8596 39.696C16.1425 39.4676 16.3321 39.1841 16.3787 38.822C16.4001 38.659 16.483 38.5529 16.6099 38.4811C16.7656 38.3934 16.9275 38.3105 17.0973 38.257C17.5546 38.1129 17.803 37.7667 17.9496 37.3505C18.1008 36.9215 18.1826 36.4697 18.1575 36.0075C18.144 35.7686 18.1385 35.5499 18.3451 35.3574C18.443 35.2663 18.4744 35.0754 18.4849 34.9266C18.4964 34.7379 18.4759 34.5407 18.4333 34.3566C18.3595 34.0363 18.381 33.7502 18.559 33.4604C18.8857 32.9337 18.8874 32.3704 18.6598 31.8023C18.4758 31.3434 18.3234 30.8879 18.3958 30.3729C18.4824 29.763 18.2385 29.2909 17.6741 29.0166C17.5014 28.9327 17.4188 28.8167 17.4049 28.6329C17.3974 28.5252 17.3848 28.4173 17.3665 28.3107C17.304 27.9454 17.2457 27.5793 17.1685 27.2165C17.1467 27.1172 17.086 27.0073 17.0094 26.9412C16.4693 26.4768 16.0961 26.3805 15.5513 26.7161C15.439 26.7854 15.3271 26.8591 15.2057 26.9061C15.0099 26.9841 14.9236 26.9342 14.857 26.734C14.8086 26.5862 14.7727 26.4329 14.7095 26.2913C14.5798 25.9936 14.3673 25.8818 14.0445 25.9349C13.9271 25.9539 13.809 25.9858 13.7001 26.0331C13.3626 26.1796 13.0467 26.1873 12.707 26.0065C12.4681 25.8778 12.1931 25.8119 11.9277 25.7397C11.4661 25.6135 10.9972 25.514 10.5372 25.3823C10.2528 25.2995 9.97359 25.2843 9.68556 25.3365C9.54464 25.3615 9.40511 25.4126 9.26285 25.4181C8.79109 25.4357 8.46069 25.6818 8.17259 26.0301C7.85142 26.4179 7.52149 26.7994 7.17756 27.1673C6.72586 27.651 6.19007 27.9611 5.4958 27.8956L5.35278 27.8976C5.07061 27.8721 4.84741 27.9929 4.62998 28.1592C4.2798 28.428 4.01232 28.7607 3.80601 29.1452C3.68512 29.3719 3.53553 29.4808 3.25884 29.4205C3.01316 29.368 2.89318 29.4383 2.82552 29.6372C2.66352 30.1132 2.65148 30.8437 3.28837 31.2289C3.39121 31.2907 3.49407 31.3526 3.60058 31.4076C4.0322 31.6304 4.16496 32 4.12442 32.4597C4.10734 32.6621 4.08405 32.8666 4.09173 33.0686C4.12534 33.9005 4.35066 34.6311 5.1574 35.0533C5.32583 35.1411 5.48003 35.2634 5.62635 35.3867C5.88831 35.6072 6.10372 35.8553 6.08981 36.2359C6.07934 36.5225 6.11096 36.8103 6.10182 37.096C6.09388 37.3375 6.13906 37.5437 6.31869 37.7185C6.38282 37.7806 6.43986 37.8773 6.44988 37.9631C6.47572 38.1876 6.56582 38.3752 6.7027 38.5491C6.84952 38.7345 6.90302 38.9392 6.88803 39.1843C6.86287 39.5841 6.98442 39.9416 7.31843 40.2004C7.46106 40.3106 7.59432 40.431 7.73696 40.5412C7.9491 40.7044 8.07862 40.8981 8.05851 41.1841C8.03565 41.5072 8.14583 41.7865 8.34659 42.0481C8.77304 42.6048 9.10564 43.2211 9.25905 43.908C9.34508 44.2976 9.4714 44.6971 9.31745 45.1099C9.18717 45.4574 9.3668 45.7397 9.61873 45.9277C9.96889 46.1897 10.1827 46.5408 10.4069 46.8965C10.5125 47.0647 10.5312 47.2234 10.464 47.4074C10.2624 47.9609 10.36 48.4864 10.6051 49.0074C10.7776 49.3735 11.0258 49.6783 11.3063 49.957C11.5064 50.1557 11.6713 50.3703 11.7723 50.6311C11.8576 50.8528 11.9904 51.0253 12.2054 51.138C12.2733 51.1737 12.3469 51.2427 12.3689 51.3133C12.4902 51.6868 12.6635 52.0434 12.6397 52.4592C12.6152 52.8815 12.7536 53.0726 13.1634 53.2093C13.4381 53.3008 13.5726 53.487 13.6429 53.7412C13.6969 53.9375 13.7276 54.1413 13.781 54.3377C13.8774 54.6845 14.0537 54.978 14.3845 55.1519C14.5342 55.2306 14.6943 55.3098 14.8565 55.1951C15.0221 55.0797 15.0604 54.8998 15.0231 54.7129C14.9794 54.4902 14.9199 54.2686 14.8567 54.0501C14.7468 53.6689 14.6804 53.2987 15.0293 52.9934L15.0706 52.9352C15.3964 52.4308 15.3446 51.9874 14.9431 51.5374C14.6481 51.2062 14.4632 50.8266 14.5589 50.355C14.5965 50.1693 14.6179 49.9689 14.591 49.7829C14.5636 49.6011 14.5029 49.4011 14.3912 49.2615C14.1748 48.9923 13.916 48.7557 13.6673 48.5126C13.2772 48.1319 13.0123 47.7144 13.2163 47.1388L13.2386 47.0336C13.4178 46.4219 13.3248 45.8705 12.8685 45.4039C12.7289 45.2613 12.6809 45.1056 12.7604 44.9138C12.909 44.5601 12.7993 44.2631 12.5623 43.9865C12.422 43.8238 12.2929 43.6483 12.1798 43.4664C11.9629 43.118 12.0342 42.8619 12.4483 42.6041C12.6689 42.7594 12.9092 42.9377 13.1579 43.1039C13.5272 43.3499 13.9279 43.3882 14.3155 43.1795C14.6075 43.0225 14.8201 43.1115 15.0219 43.3077C15.2368 43.5172 15.4307 43.7474 15.6489 43.9517C15.8227 44.1137 16.0078 44.2704 16.2103 44.3932C16.4225 44.5234 16.5545 44.471 16.6927 44.2632C16.9486 43.8746 17.0171 43.8536 17.3989 44.1093C17.6087 44.2518 17.8204 44.3395 18.0707 44.2526C18.2575 44.1867 18.3973 44.2403 18.5103 44.3923C18.7524 44.7189 19.0053 45.0381 19.2351 45.3725C19.5234 45.7931 19.8647 45.8709 20.2695 45.5843C20.3278 45.543 20.3838 45.4977 20.4435 45.4567C20.6733 45.2994 20.698 45.2887 20.8962 45.5018C21.1403 45.7643 21.3714 46.0407 21.5903 46.3254C21.8835 46.7048 22.2739 46.9102 22.7359 46.8911C23.0174 46.88 23.1878 46.9762 23.3449 47.1725C23.4268 47.2756 23.5195 47.3712 23.6013 47.4742C23.9808 47.9503 24.3874 48.3831 25.0446 48.4467L25.1784 48.4965C25.5268 48.6401 25.8601 48.795 25.9723 49.2103C26.0845 49.6227 26.3373 49.9616 26.5757 50.3081C26.7387 50.5444 26.9389 50.7197 27.2184 50.7993C27.4456 50.8645 27.6197 50.9979 27.7491 51.2013C27.8723 51.3927 28.0105 51.5757 28.1524 51.7527C28.3503 51.9983 28.6378 52.1149 28.8031 52.0302C28.9748 51.942 29.0271 51.7202 28.9425 51.3774C28.9059 51.227 28.7917 51.0762 28.807 50.9356C28.8462 50.576 28.6797 50.2805 28.5595 49.9726ZM14.6376 37.3895C14.5751 37.4515 14.487 37.4907 14.4052 37.5284C14.2244 37.6149 14.0295 37.6774 13.8579 37.7796C13.6638 37.8955 13.4756 38.029 13.3068 38.1803C13.1773 38.2974 13.0588 38.4413 12.9806 38.5955C12.8685 38.8186 12.7165 38.9898 12.491 39.1433C12.3916 39.0911 12.2932 39.0253 12.185 38.9824C11.7103 38.7938 11.456 38.8284 11.1801 39.1489C11.1048 39.2366 11.0093 39.3052 10.8533 39.4449C10.8385 39.2165 10.816 39.0705 10.8231 38.9259C10.8303 38.7953 10.8755 38.6674 10.8945 38.5372C10.9533 38.1373 10.8768 37.992 10.4933 37.8517C10.3359 37.7946 10.2614 37.7053 10.231 37.5494C10.1853 37.3138 10.1303 37.0795 10.0774 36.8448C10.0002 36.4989 9.80583 36.2703 9.4491 36.1849C9.20959 36.1274 9.17426 36.056 9.17468 35.8037C9.17595 35.6496 9.17081 35.4923 9.15465 35.3383C9.1031 34.8189 8.77313 34.5217 8.33586 34.303C8.26115 34.2659 8.17487 34.1829 8.1606 34.1076C8.0904 33.7469 7.89236 33.4143 7.95391 33.0233C7.99249 32.7751 7.80774 32.6235 7.62039 32.5099C7.32711 32.3337 7.23751 32.0616 7.23168 31.7477C7.22577 31.4837 7.32503 31.382 7.58623 31.3614C7.65765 31.3568 7.73064 31.3422 7.80114 31.3473C8.41482 31.3954 8.82004 31.0773 9.13445 30.5949C9.18637 30.5146 9.24219 30.4356 9.29247 30.3543C9.4625 30.078 9.71654 29.9381 10.0309 29.903C10.2337 29.8799 10.4396 29.8845 10.6396 29.8518C10.8982 29.8098 11.1517 29.744 11.4366 29.6816C12.2178 30.5755 12.4841 30.6448 13.2758 30.1429C13.5283 30.3067 13.8023 30.4454 13.7317 30.8479C13.6998 31.033 13.8023 31.2004 13.9542 31.3159C14.1635 31.4761 14.3729 31.6369 14.5948 31.7781C14.7455 31.8748 14.9176 31.9383 15.0837 32.0185C15.0259 32.1887 15.0001 32.278 14.9651 32.3626C14.8235 32.7081 14.8282 32.927 15.1105 33.1363C15.4999 33.4241 15.4187 33.8348 15.4824 34.213L15.4587 34.315C15.2916 34.6141 15.1196 34.9119 14.9533 35.2115C14.7885 35.5079 14.7908 35.8328 14.809 36.1564C14.8201 36.3474 14.851 36.538 14.8621 36.7297C14.876 36.9781 14.8207 37.21 14.6376 37.3895Z" fill="black"/>
<path d="M116.304 14.8732C116.123 14.8295 115.974 14.9015 115.835 15.0018C115.476 15.2599 115.11 15.5094 114.768 15.7875C114.547 15.9664 114.314 16.1624 114.17 16.4007C113.72 17.1487 112.926 17.5586 112.418 18.2441L112.361 18.2885C111.848 18.6391 111.353 19.021 110.816 19.3301C110.347 19.5993 109.85 19.8083 109.617 20.3653C109.581 20.2413 109.57 20.1367 109.584 20.0353C109.627 19.7364 109.524 19.4922 109.321 19.2844C109.17 19.1297 109.007 18.9875 108.857 18.8318C108.785 18.7575 108.697 18.6711 108.679 18.5784C108.634 18.3471 108.495 18.2023 108.328 18.0541C108.22 17.9568 108.119 17.8157 108.084 17.6774C107.903 16.9568 107.748 16.2307 107.575 15.5092C107.488 15.1457 107.269 14.8967 106.907 14.7723C106.801 14.736 106.676 14.6609 106.627 14.569C106.278 13.9029 105.713 13.3604 105.514 12.6086C105.492 12.5291 105.451 12.4518 105.405 12.3825C105.043 11.8315 104.689 11.275 104.309 10.7375C104.152 10.5153 103.942 10.326 103.737 10.1429C103.659 10.0748 103.49 10.0101 103.427 10.0496C103.334 10.1059 103.25 10.2591 103.253 10.3685C103.259 10.5674 103.325 10.7654 103.376 10.9625C103.528 11.5646 103.686 12.1671 103.845 12.7788C103.482 12.9477 103.446 13.2225 103.534 13.5226C103.653 13.9241 103.789 14.3193 103.924 14.7148C104.002 14.9412 104.111 15.1577 104.169 15.3883C104.282 15.8422 104.374 16.302 104.467 16.7604C104.571 17.2743 104.762 17.7513 105.083 18.1647C105.351 18.512 105.552 18.8872 105.665 19.3098C105.724 19.5292 105.785 19.7498 105.826 19.9731C105.868 20.194 105.985 20.3493 106.182 20.4406C106.319 20.5037 106.467 20.5407 106.688 20.6156C106.657 21.2021 106.641 21.8002 106.59 22.3962C106.542 22.9683 106.43 23.5314 106.712 24.0884C106.84 24.3396 106.758 24.4722 106.512 24.6218C106.359 24.7155 106.194 24.7905 106.045 24.8899C105.657 25.1484 105.259 25.3948 104.895 25.6857C104.582 25.9368 104.611 26.1643 104.927 26.4169L104.997 26.4827L104.971 26.5573C104.903 26.6236 104.832 26.6882 104.759 26.749C104.289 27.14 103.947 27.6297 103.669 28.1657C103.48 28.5295 103.521 28.7375 103.798 29.0059C104.12 29.3172 104.141 29.4403 103.884 29.8006C103.572 30.2399 103.248 30.671 102.922 31.0993C102.774 31.2937 102.657 31.4931 102.623 31.7423C102.613 31.826 102.565 31.9339 102.499 31.9756C102.108 32.2231 101.912 32.5967 101.788 33.0218C101.679 33.4006 101.493 33.73 101.189 33.9837C101.024 34.12 100.836 34.2296 100.676 34.3717C99.9611 35.0069 99.433 35.7969 98.9072 36.5836C98.7864 36.764 98.7449 37.0055 98.7002 37.2256C98.6527 37.4537 98.657 37.6859 98.9109 37.8171C99.1246 37.9272 99.3405 37.8807 99.5637 37.6734L99.6848 37.5414C100.072 37.038 100.45 36.5279 100.847 36.0325C100.994 35.8485 101.164 35.6632 101.363 35.545C101.751 35.3133 102.163 35.1183 102.575 34.9262C103.019 34.7174 103.385 34.4366 103.646 34.0055C103.993 33.431 104.372 32.876 104.74 32.3138C104.798 32.2248 104.863 32.1337 104.94 32.0611C105.203 31.8115 105.367 31.5028 105.424 31.1553C105.525 30.5381 105.798 29.9945 106.086 29.4542C106.215 29.2111 106.365 28.9781 106.48 28.7277C106.553 28.5695 106.613 28.3903 106.618 28.2175C106.635 27.683 106.843 27.2491 107.211 26.8722C107.721 26.3485 108.218 25.8139 108.724 25.286C108.946 25.0556 109.086 24.7867 109.166 24.476C109.216 24.281 109.292 24.0884 109.385 23.9091C109.65 23.3928 110.054 23.0215 110.566 22.7407C111.386 22.2905 111.883 21.5762 112.098 20.6707C112.155 20.4341 112.28 20.2549 112.445 20.0972C112.556 19.9893 112.682 19.8942 112.812 19.81C113.19 19.5644 113.487 19.2421 113.753 18.8811C113.909 18.6696 114.076 18.4578 114.274 18.289C114.874 17.7809 115.371 17.1837 115.811 16.5376C116.068 16.1618 116.306 15.7718 116.535 15.3791C116.683 15.1289 116.584 14.9403 116.304 14.8732Z" fill="black"/>
<path d="M60.6539 33.6975C60.3567 33.273 60.0809 32.8429 59.9979 32.3136C59.9407 31.9486 59.8304 31.5924 59.7647 31.2285C59.7113 30.9346 59.6575 30.6355 59.6605 30.3388C59.666 29.8127 59.7093 29.2857 59.7458 28.7602C59.7631 28.5152 59.7007 28.3002 59.5107 28.1484C59.2407 27.9312 59.153 27.6411 59.1581 27.3204C59.1654 26.9259 59.2048 26.531 59.2223 26.1364C59.2287 25.9951 59.2384 25.8456 59.2017 25.7114C59.1405 25.4823 59.0021 25.2881 58.7524 25.244C58.4857 25.1961 58.2878 25.3384 58.1614 25.5633C58.0746 25.718 57.9855 25.8862 57.9581 26.0587C57.9093 26.364 57.8953 26.6772 57.8871 26.9876C57.8718 27.5956 57.8705 28.205 57.8626 28.813L57.8448 28.9554C57.6628 29.4409 57.672 29.9403 57.7154 30.4461C57.7385 30.7085 57.6405 30.906 57.4321 31.1004C57.131 31.3827 56.8658 31.7157 56.6394 32.062C56.4243 32.39 56.276 32.7618 56.1002 33.1148C56.0622 32.9084 56.0056 32.7029 55.9977 32.4966C55.9709 31.7797 55.9643 31.0613 55.9466 30.3425C55.9375 29.9839 55.9339 29.6225 55.901 29.2655C55.8829 29.0796 55.8367 28.8816 55.7472 28.7202C55.6362 28.5209 55.463 28.3514 55.1975 28.3927C54.9446 28.4305 54.8041 28.6042 54.7291 28.837C54.7041 28.9165 54.6848 28.9992 54.6706 29.0814C54.5305 29.9119 54.3926 30.7425 54.2444 31.629C54.0263 31.1548 53.7439 30.8376 53.214 31.088C52.9472 30.8055 52.825 30.4782 52.6863 30.162C52.5758 29.9112 52.4029 29.7204 52.1788 29.5695C52.0055 29.4527 51.8267 29.4919 51.6713 29.5912C51.5129 29.6934 51.4241 29.8426 51.47 30.0524C51.5082 30.2266 51.5191 30.4066 51.5448 30.5842C51.5874 30.8791 51.6162 31.1777 51.6785 31.4683C51.7443 31.772 51.8294 32.0737 51.9304 32.3682C52.0818 32.8086 51.8709 33.1656 51.7136 33.5769C51.545 33.3645 51.3864 33.1985 51.2668 33.0069C51.186 32.8788 51.1727 32.7111 51.1083 32.5705C51.0073 32.3536 50.8819 32.1486 50.7803 31.932C50.6645 31.6839 50.5592 31.4306 50.457 31.1781C50.4076 31.0556 50.3852 30.9235 50.3345 30.8025C50.0895 30.2185 49.7848 29.6593 49.6452 29.0324C49.6016 28.8366 49.5294 28.6406 49.4377 28.4621C49.3336 28.2614 49.1504 28.1834 48.9965 28.256C48.7997 28.3497 48.6069 28.4652 48.5388 28.6889C48.4702 28.9166 48.4108 29.1502 48.379 29.3858C48.3455 29.6344 48.3492 29.8879 48.3385 30.1394C48.3317 30.3154 48.2613 30.4386 48.075 30.4699C47.7343 30.5284 47.6111 30.7774 47.5505 31.0758C47.5084 31.2874 47.4931 31.5048 47.436 31.7123C47.2866 32.2632 47.3318 32.7803 47.6602 33.2604C47.7722 33.4242 47.8291 33.6037 47.8019 33.8033C47.7085 34.4899 47.746 35.1957 47.4967 35.861C47.4473 35.9927 47.4122 36.1469 47.4305 36.2838C47.4607 36.5154 47.4695 36.8089 47.6108 36.9567C47.8651 37.2185 47.9666 37.5114 48.0298 37.8436C48.0422 37.9134 48.0679 37.9839 48.0987 38.0476C48.2004 38.2511 48.4031 38.3679 48.5902 38.3372C48.7962 38.3023 48.899 38.1699 48.9172 37.8888C48.9314 37.6834 48.9601 37.4902 49.0781 37.3104C49.2151 37.1 49.2025 36.8653 49.0679 36.6624C48.959 36.4958 48.9818 36.3493 49.0513 36.1889C49.1039 36.0682 49.1727 35.9513 49.2076 35.8264C49.2408 35.7041 49.2741 35.5655 49.2475 35.4474C49.1576 35.0538 49.3075 34.7263 49.4683 34.3707C49.5612 34.4141 49.6215 34.4618 49.687 34.4701C49.9865 34.5049 50.1363 34.7147 50.2686 34.9474C50.4567 35.2815 50.6217 35.6303 50.8346 35.9471C51.1263 36.3839 51.4525 36.797 51.7674 37.2191L51.878 37.3098C52.021 37.4075 52.1644 37.4112 52.315 37.3203C52.514 37.2026 52.6104 37.0283 52.5635 36.807C52.4625 36.3396 52.344 35.8751 52.2289 35.4101C52.1645 35.1499 52.0897 34.8914 52.0095 34.5923C52.2849 34.67 52.4147 34.7983 52.4431 35.0281C52.4561 35.1345 52.4981 35.2389 52.5045 35.3452C52.5295 35.7633 52.8406 35.9276 53.1526 36.0887C53.2721 36.1498 53.3981 36.1237 53.4749 36.013C53.6738 35.7246 53.8664 35.4317 53.7321 35.0485C53.6964 34.9494 53.6692 34.8387 53.6728 34.7345C53.687 34.3349 53.5717 33.979 53.3462 33.6545C53.2714 33.5477 53.2253 33.4398 53.2672 33.2804C53.4715 33.3984 53.6729 33.4693 53.8118 33.6053C54.1379 33.9209 54.4395 34.2624 54.7384 34.6044C54.9746 34.8744 55.188 35.1635 55.4199 35.4374C55.5412 35.5801 55.6964 35.6801 55.8947 35.617C56.0957 35.5524 56.2091 35.4118 56.2207 35.1908C56.2276 35.0523 56.2525 34.9149 56.2718 34.756L56.3282 34.7964L56.3649 34.8968C56.4982 35.369 56.8219 35.6067 57.2951 35.6725C57.4602 35.6949 57.6244 35.7294 57.7829 35.7775C58.4258 35.973 59.0482 35.7113 59.3455 35.1133C59.3924 35.0196 59.435 34.9237 59.4998 34.7857C59.5772 34.9549 59.6374 35.0832 59.6929 35.2125C59.833 35.5315 60.0572 35.7762 60.3509 35.9545C60.6279 36.1226 60.9434 36.0703 61.1671 35.8345C61.3637 35.6265 61.4415 35.3968 61.3531 35.1106C61.1947 34.6001 60.9578 34.133 60.6539 33.6975ZM48.8085 33.0099C48.893 32.4233 48.9731 31.8736 49.0523 31.3233L49.1481 31.3265C49.2066 31.5937 49.2284 31.8763 49.3338 32.1237C49.4319 32.3513 49.6206 32.541 49.8008 32.7924L48.8085 33.0098L48.8085 33.0099ZM58.5246 33.6596C58.4281 33.7834 58.3686 33.9364 58.2805 34.0687C58.1299 34.2965 57.8831 34.3161 57.7917 34.0789C57.7063 33.8594 57.7139 33.6004 57.7003 33.3578C57.687 33.1202 57.746 32.9351 57.9766 32.7783C58.182 32.6366 58.3142 32.3884 58.53 32.1271C58.7125 32.6796 58.9139 33.1587 58.5246 33.6596Z" fill="black"/>
<path d="M41.7538 26.4966C41.5123 26.5936 41.2544 26.672 41.0423 26.8167C40.7876 26.9898 40.543 27.1995 40.346 27.4361C39.7567 28.1443 39.1886 28.8712 38.6192 29.5963C38.478 29.7768 38.3663 29.9852 38.1118 30.0161C37.8923 30.0429 37.7369 30.1657 37.6058 30.3285C37.3949 30.5887 37.1952 30.8597 36.9809 31.1177C36.8823 31.2361 36.7729 31.351 36.6486 31.4413C36.4399 31.594 36.2155 31.7259 35.9949 31.8681C35.7713 31.6188 35.6928 31.3244 35.7831 30.9814C35.8201 30.8429 35.845 30.696 35.8375 30.5546C35.8159 30.1386 35.8182 29.7188 35.4975 29.3771C35.4013 29.2751 35.3866 29.0943 35.341 28.9468C35.281 28.7532 35.2757 28.5183 35.1606 28.3706C34.9677 28.1248 34.964 27.8741 34.9951 27.5983C35.0066 27.491 35.0213 27.3836 35.0263 27.2763C35.0493 26.8029 34.989 26.3411 34.7967 25.9046C34.5846 25.4204 34.1149 25.3576 33.7702 25.7623C33.7078 25.8346 33.646 25.9068 33.5894 25.9727C33.1516 25.9586 33.0744 25.9872 32.9517 26.2985C32.8966 26.4381 32.8699 26.6037 32.8842 26.7524C32.9067 26.9651 32.9849 27.1716 33.0269 27.3837C33.1585 28.041 33.3613 28.6966 33.3913 29.3585C33.4301 30.2164 33.424 31.0842 33.29 31.9425C33.2498 32.1997 33.2793 32.4682 33.2769 32.7311C33.2753 32.9814 33.2894 33.2327 33.2692 33.4813C33.2387 33.8735 33.1748 34.2635 33.1454 34.657C33.1356 34.7955 33.1664 34.9463 33.2132 35.0799C33.2908 35.3003 33.4611 35.433 33.6948 35.458C33.9055 35.4808 34.0263 35.3474 34.1143 35.1779C34.2178 34.9756 34.3164 34.7707 34.4237 34.5691C34.4699 34.4827 34.5303 34.4042 34.5846 34.322L34.6779 34.3506C34.6726 34.5599 34.6639 34.7708 34.6625 34.9816C34.6604 35.1359 34.647 35.295 34.6774 35.4438C34.7898 35.9909 34.8268 36.5274 34.641 37.0717C34.5637 37.2998 34.5545 37.5891 34.7999 37.72C35.0678 37.8637 35.0873 38.0799 35.0967 38.3199C35.1267 39.0748 35.1542 39.8289 35.1761 40.5835C35.18 40.7146 35.1691 40.8489 35.1399 40.9763C35.0382 41.4142 35.0673 41.8542 35.065 42.2981C35.0634 42.7749 35.3374 43.0169 35.6689 43.2441C35.8698 43.3827 36.0372 43.365 36.164 43.1591C36.2872 42.9598 36.4097 42.7307 36.4307 42.5055C36.4733 42.0388 36.5283 41.5782 36.6332 41.122C36.6591 41.0063 36.6606 40.883 36.6602 40.7642C36.658 40.2965 36.65 39.829 36.6449 39.3616C36.6395 38.9194 36.6351 38.4776 36.6302 37.9781C37.0414 38.0712 37.1679 37.787 37.3112 37.5123C37.3429 37.4497 37.4208 37.4114 37.4946 37.3474C37.6185 37.5386 37.7001 37.7209 37.8327 37.8518C37.9651 37.9817 38.1504 38.0591 38.3099 38.1628L38.4153 38.2598C38.8297 38.7415 39.2738 39.2088 39.4571 39.8386C39.5713 40.2299 39.8313 40.4706 40.1753 40.6415C40.5825 40.8434 40.8609 41.1752 41.0385 41.5717C41.2833 42.1148 41.6739 42.5283 42.1125 42.9C42.3075 43.0653 42.4234 43.2503 42.5023 43.4837C42.5669 43.6748 42.6306 43.8823 42.7547 44.0338C42.9625 44.2882 43.1356 44.5471 43.2304 44.8664C43.2991 45.0999 43.5172 45.2001 43.74 45.155C43.9878 45.1036 44.0862 44.9742 44.0873 44.6919C44.0879 44.6449 44.0789 44.597 44.0713 44.5254C44.4238 44.454 44.5772 44.3229 44.5628 44.0431C44.5433 43.6603 44.501 43.2767 44.2764 42.9426C44.1691 42.7835 44.0733 42.6169 43.9757 42.4514C43.4028 41.4802 42.8433 40.5057 42.5414 39.4019C42.4689 39.1414 42.2659 38.8956 42.0692 38.696C41.7355 38.3587 41.4614 38.0032 41.2853 37.5528C41.0465 36.9438 40.7403 36.7786 40.0894 36.8113C39.8447 36.8231 39.615 36.7971 39.42 36.6184C38.9778 36.2133 38.5273 35.8172 38.0825 35.4169C38.0196 35.3602 37.9665 35.295 37.9092 35.2335C37.754 35.0695 37.6054 34.899 37.4437 34.7424C37.1162 34.4234 37.1563 33.955 37.5426 33.7003C37.7832 33.5428 38.0267 33.3913 38.2665 33.2332C38.9496 32.7838 39.3607 32.1851 39.3769 31.3335C39.3872 30.8395 39.5424 30.3883 39.9908 30.0966C40.0811 30.0379 40.1543 29.9545 40.2405 29.8902C40.6791 29.5573 40.9506 29.1167 41.0731 28.5833C41.1209 28.3771 41.2389 28.2245 41.3652 28.059C41.6337 27.7078 41.8697 27.3314 42.1083 26.958C42.1804 26.8462 42.2137 26.7142 42.1091 26.5907C42.0119 26.4752 41.8883 26.4422 41.7538 26.4966Z" fill="black"/>
<path d="M97.4014 30.2597C97.4821 30.0734 97.4785 29.8763 97.381 29.7028C97.2239 29.4219 97.0556 29.1452 96.8698 28.8816C96.5662 28.4549 96.3494 28.0127 96.3162 27.4666C96.2632 26.6074 95.9066 25.8579 95.2529 25.2929C94.9732 25.0516 94.8343 24.7953 94.8066 24.4415C94.789 24.2167 94.7377 23.9926 94.5643 23.8159C94.1687 23.4136 93.7838 23.0024 93.2149 22.8317C93.0161 22.7726 92.9764 22.5606 93.1254 22.4057C93.2167 22.3116 93.3357 22.2467 93.4344 22.1591C93.6128 22.002 93.8042 21.853 93.9562 21.6717C94.1452 21.4455 94.3598 21.2688 94.6313 21.1529C94.7363 21.1078 94.8291 21.0266 94.9178 20.9502C95.2196 20.6906 95.3789 20.3456 95.5029 19.9761C95.5751 19.7609 95.5726 19.5525 95.5014 19.3415C95.4554 19.2051 95.4218 19.0614 95.3541 18.9363C95.2586 18.7608 95.1715 18.5504 95.0185 18.4431C94.7294 18.2389 94.5135 17.9717 94.2674 17.7303C94.1178 17.582 94.0474 17.4574 94.1246 17.2315C94.2386 16.9002 94.1117 16.6546 93.8115 16.474C93.48 16.2769 93.1396 16.2297 92.7826 16.3974C92.4845 16.5366 92.1778 16.5262 91.8696 16.4457C91.3857 16.3186 91.1112 16.4015 90.8704 16.8324C90.6262 17.2708 90.4279 17.7358 90.2111 18.1893C90.1769 18.2604 90.1477 18.3343 90.1095 18.4233C89.8904 18.2954 89.8608 18.0901 89.7948 17.9023C89.6476 17.4844 89.5099 17.0623 89.3313 16.6587C89.2254 16.4188 89.0324 16.3466 88.8358 16.3882C88.6209 16.4324 88.4563 16.6297 88.4443 16.886C88.439 16.9882 88.4737 17.0936 88.4928 17.1972C88.5479 17.5025 88.6215 17.8052 88.6562 18.1135C88.7242 18.7078 88.7237 19.3134 88.8365 19.8985C88.961 20.5405 89.0026 21.1786 89.0031 21.8287C89.0038 22.0491 89.0777 22.2727 89.1397 22.4892C89.2192 22.768 89.4277 22.915 89.6993 22.9955C90.0371 23.0945 90.154 23.2837 90.0967 23.6399C90.0652 23.8411 90.0043 24.037 89.9731 24.2388C89.9194 24.5849 89.9711 24.9179 90.209 25.1854C90.4665 25.4758 90.5417 25.792 90.517 26.1772C90.4978 26.4804 90.5346 26.8088 90.6371 27.0933C90.7693 27.4603 90.8535 27.8274 90.8897 28.2101C90.9039 28.3653 90.9201 28.5252 90.972 28.6692C91.014 28.7838 91.0925 28.9081 91.1909 28.9767C91.5596 29.2331 92.0206 29.0522 92.0987 28.5975C92.1434 28.3335 92.1218 28.0449 92.0685 27.781C91.9862 27.3716 91.9868 26.9808 92.072 26.5707C92.1341 26.2727 92.1099 25.9526 92.1015 25.6435C92.0958 25.4572 92.0454 25.2733 92.0239 25.1394C92.1205 25.1828 92.2395 25.2316 92.3563 25.2865C92.9092 25.5457 93.3539 25.9416 93.7577 26.392C93.9089 26.5605 94.078 26.7251 94.268 26.8439C94.6749 27.0979 94.8873 27.4551 94.9656 27.9203C95.0032 28.1423 95.0569 28.3806 95.176 28.5635C95.4061 28.9183 95.5899 29.2899 95.7566 29.6771C95.9103 30.0312 96.1322 30.3492 96.4756 30.5538C96.8367 30.769 97.2368 30.641 97.4014 30.2597ZM92.4531 20.6769C92.3995 20.866 92.2823 21.0362 92.1833 21.2323C92.0882 21.1924 92.0086 21.1827 91.9671 21.1375C91.7804 20.9337 91.5744 20.764 91.3245 20.6362C91.2331 20.5895 91.1977 20.4352 91.1247 20.309C91.47 20.1447 91.6289 19.9075 91.6846 19.5743C91.7802 19.0118 91.8852 18.933 92.5994 18.8462C92.1615 19.3063 92.256 19.7204 92.4681 20.1613C92.5357 20.3012 92.4987 20.5138 92.4531 20.6769Z" fill="black"/>
<path d="M95.6593 21.8123C95.4067 21.9416 95.3352 22.1531 95.4467 22.4087C95.5761 22.7057 95.8025 22.8402 96.1099 22.7435C96.3783 22.6591 96.6224 22.7083 96.8843 22.7469C97.2784 22.8057 97.6311 23.0861 98.0736 22.9314C98.0648 23.0279 98.0712 23.0902 98.0529 23.144C97.9383 23.4967 97.9441 23.8466 98.0118 24.2092C98.0421 24.3742 97.9999 24.5659 97.9461 24.7309C97.8741 24.9534 97.8803 25.1587 97.9859 25.357C98.0696 25.5152 98.1609 25.6748 98.2792 25.8072C98.4198 25.9647 98.4576 26.1105 98.4128 26.324C98.3183 26.7845 98.3637 27.2321 98.6894 27.6129C98.7416 27.6747 98.7899 27.755 98.8034 27.8327C98.8876 28.3405 99.0425 28.8541 99.0204 29.3575C98.9886 30.0579 99.1171 30.7182 99.2785 31.3813C99.3524 31.6848 99.4819 31.976 99.727 32.186C99.9619 32.3867 100.185 32.3167 100.279 32.024C100.301 31.9568 100.305 31.883 100.311 31.811C100.34 31.4543 100.368 31.0971 100.393 30.7384C100.406 30.5478 100.434 30.3549 100.416 30.1667C100.337 29.3572 100.253 28.5472 100.152 27.7404C100.095 27.2925 100.073 26.8576 100.256 26.4319C100.297 26.3358 100.327 26.2192 100.313 26.1189C100.265 25.7762 100.236 25.4239 100.037 25.1216C99.9452 24.9834 99.9206 24.8377 99.9696 24.6775C100.116 24.1962 100.038 23.7322 99.8756 23.2694C99.801 23.0585 99.7558 22.8361 99.6973 22.6195L99.769 22.5386C99.9029 22.5686 100.054 22.5677 100.167 22.6338C100.65 22.9159 101.147 22.8466 101.62 22.6638C101.882 22.5619 102.094 22.5592 102.336 22.6705C102.649 22.8152 102.98 22.8528 103.32 22.7921C103.798 22.705 103.943 22.5025 103.864 22.0382C103.944 21.948 104.032 21.865 104.104 21.7695C104.298 21.5061 104.264 21.2411 103.987 21.0589C103.852 20.969 103.686 20.9028 103.526 20.8793C103.315 20.8485 103.095 20.8547 102.882 20.8729C102.729 20.886 102.606 20.8601 102.482 20.7663C102.241 20.581 101.962 20.5337 101.665 20.5934C101.443 20.6385 101.222 20.6898 100.995 20.7394C100.607 20.3935 100.509 20.3841 99.9703 20.5799C99.7389 20.6628 99.5077 20.7766 99.2029 20.7157C99.2201 20.5228 99.2168 20.3308 99.2576 20.1502C99.3803 19.6074 99.4229 19.0577 99.4032 18.5065C99.3817 17.9066 99.3683 17.3107 99.5249 16.7236L99.5312 16.6519C99.5033 16.2336 99.4298 15.8414 99.0158 15.6118C98.6861 15.4296 98.6659 15.3673 98.7799 15.0095C98.8967 14.6439 99.0322 14.2836 99.1297 13.9133C99.1865 13.6979 99.2249 13.4629 99.2005 13.2447C99.1499 12.8065 98.8028 12.6252 98.3876 12.788C98.0163 12.9338 97.8401 13.232 97.7618 13.6061C97.7057 13.8742 97.6395 14.1401 97.5759 14.4083C97.4132 15.0949 97.2327 15.7773 97.2983 16.4982C97.322 16.7562 97.279 17.0214 97.2476 17.2818C97.2 17.6888 97.177 18.0956 97.2725 18.4976C97.337 18.7723 97.333 19.0415 97.265 19.3158C97.1737 19.6877 97.2064 20.0471 97.3624 20.405C97.5374 20.8066 97.4401 20.984 97.023 21.0775C96.7955 21.1281 96.5816 21.1968 96.4336 21.3899C96.3032 21.5599 96.1285 21.6509 95.9272 21.7075C95.8353 21.7334 95.7441 21.7689 95.6593 21.8123Z" fill="black"/>
<path d="M32.7737 38.6817C32.4215 39.0748 32.149 39.1375 31.6602 38.9337C31.516 38.8738 31.3767 38.8024 31.2319 38.746C30.9781 38.6463 30.7355 38.648 30.549 38.8825C30.4358 39.0239 30.2955 39.0517 30.1322 39.0083C29.8577 38.9343 29.6379 39.0338 29.4486 39.2218C29.3036 39.3643 29.1747 39.5244 29.0254 39.6613C28.8191 39.8486 28.573 39.7714 28.5101 39.5007C28.4887 39.41 28.4855 39.3081 28.5042 39.2169C28.5422 39.0298 28.5957 38.8457 28.6516 38.6634C28.7223 38.4353 28.8268 38.2139 28.8725 37.981C28.9768 37.4451 28.8463 37.2201 28.3576 37.0302C28.3023 37.0086 28.2467 36.9885 28.1581 36.9551C28.1195 36.4886 28.3517 36.1584 28.6024 35.833C28.9387 35.3972 29.2801 34.9647 29.5972 34.5148C29.7747 34.2626 29.8663 33.9758 29.6417 33.6922C29.8324 33.5038 30.0435 33.4018 30.2835 33.3515C30.4829 33.3093 30.6822 33.2664 30.8794 33.2151C31.378 33.0853 31.7814 32.8292 31.9978 32.3405C32.0892 32.1328 32.1051 31.9153 31.9488 31.7288C31.8059 31.5572 31.6133 31.5069 31.3962 31.5647C31.0151 31.6657 30.6309 31.7558 30.255 31.8741C30.0846 31.9282 29.9446 31.9604 29.7884 31.8385C29.6172 31.7052 29.4169 31.6926 29.2068 31.7526C28.6856 31.9027 28.2469 32.185 27.917 32.6135C27.8151 32.7459 27.7289 32.9442 27.7425 33.1032C27.7785 33.5044 27.6046 33.7331 27.2593 33.8768L27.1037 33.9652C26.448 34.3192 26.2791 34.6544 26.3397 35.3888C26.3658 35.6954 26.3963 36.0251 26.3159 36.3125C26.2 36.7191 26.1779 37.1087 26.2439 37.5171C26.2883 37.7868 26.2354 38.0395 26.0974 38.2778C26.0012 38.4432 25.8873 38.6082 25.8392 38.7897C25.7756 39.0271 25.732 39.2823 25.7453 39.5271C25.7609 39.8323 25.995 39.9824 26.2961 39.94C26.3501 39.9325 26.4024 39.9174 26.4889 39.8984C26.4415 40.046 26.3856 40.1549 26.3727 40.2699C26.3476 40.4931 26.3118 40.7239 26.3407 40.9425C26.3856 41.2844 26.5791 41.4063 26.9265 41.358C27.0927 41.3356 27.2552 41.292 27.42 41.2595C27.7627 41.1933 27.8942 41.2824 27.9011 41.6312C27.9086 41.9529 28.0282 42.2051 28.3215 42.3241C28.5926 42.4357 28.6873 42.6377 28.7492 42.8933C28.7883 43.0555 28.8416 43.2183 28.9211 43.3644C28.981 43.4743 29.078 43.5763 29.1817 43.6488C29.3601 43.7753 29.565 43.7487 29.688 43.5716C29.7939 43.4173 29.8792 43.2387 29.9313 43.0587C30.0107 42.7833 30.04 42.4924 30.1163 42.2162C30.1771 41.9993 30.2562 41.7824 30.3613 41.5843C30.4528 41.4109 30.5924 41.31 30.8307 41.3451C30.9759 41.3667 31.1593 41.2914 31.2905 41.2055C31.4474 41.103 31.586 40.9575 31.6958 40.8044C31.8866 40.5362 32.1271 40.4213 32.4535 40.4047C33.2027 40.3667 33.7627 39.7426 33.7201 38.9941C33.7119 38.8398 33.6394 38.6591 33.5353 38.5479C33.3144 38.3098 33.053 38.3699 32.7737 38.6817Z" fill="black"/>
<path d="M88.2938 24.5033C87.9696 24.2496 87.8418 23.9668 87.9351 23.568C87.9939 23.3119 88.0554 23.0513 88.0693 22.7903C88.1052 22.1491 87.9621 21.5559 87.5338 21.0509C87.4441 20.9452 87.3823 20.8069 87.3385 20.6736C87.2428 20.3904 87.0907 20.1708 86.8293 20.0061C86.3672 19.7144 85.8895 19.4914 85.3396 19.4234C84.5832 19.3311 83.949 19.5558 83.5154 20.1762C83.2369 20.5752 83.0567 21.042 82.8256 21.4745C82.7539 21.6082 82.6745 21.7466 82.5688 21.8518C82.1007 22.3172 81.7719 22.8444 81.8116 23.5336C81.8341 23.937 81.7719 24.3045 81.5767 24.6735C81.3264 25.1476 81.4308 25.7549 81.8031 26.0643C82.2945 26.4733 82.4828 27.0024 82.5341 27.6098C82.554 27.8481 82.5905 28.0848 82.6257 28.3727C82.7016 28.5759 82.768 28.8349 82.8917 29.0627C83.0351 29.3274 83.2926 29.4264 83.528 29.3081C83.8027 29.1687 84.0348 29.2594 84.285 29.3491C84.4844 29.4211 84.6886 29.4849 84.8967 29.5258C85.0192 29.5504 85.1093 29.5848 85.1933 29.6874C85.4618 30.0148 85.7192 30.0874 86.1165 29.9162C86.4213 29.7842 86.6989 29.5952 87.0479 29.5846C87.125 29.5824 87.2138 29.5329 87.2719 29.4785C87.5684 29.2015 87.9237 28.9587 88.1347 28.626C88.5111 28.0326 88.8345 27.3975 89.1128 26.7501C89.279 26.3633 89.3694 25.93 89.1572 25.4957C88.9558 25.0833 88.6386 24.7745 88.2938 24.5033ZM85.9978 26.2538C86.2496 26.5746 86.2397 26.5828 86.2823 26.9435C86.0709 27.0118 85.8489 27.0832 85.651 27.1456C85.4253 26.9209 85.2253 26.7192 85.023 26.5201C84.8519 26.3538 84.6592 26.2361 84.4104 26.3032C84.2279 26.352 84.1404 26.2568 84.0773 26.1124C84.0102 25.9591 83.9482 25.8027 83.8802 25.6497C83.6889 25.2202 83.708 24.8034 83.9849 24.4232C84.2554 24.0515 84.3153 23.68 84.1399 23.2434C84.0013 22.8985 84.2074 22.6297 84.4784 22.4142C84.4754 22.6509 84.4674 22.888 84.4731 23.1242C84.483 23.6044 84.7483 23.8995 85.1746 24.0716C85.2748 24.1118 85.3806 24.1364 85.4803 24.1776C85.7368 24.2826 85.8106 24.4029 85.782 24.6796C85.7689 24.8101 85.7373 24.9393 85.7145 25.0697C85.6392 25.5049 85.7182 25.8987 85.9978 26.2538Z" fill="black"/>
<path d="M23.579 36.644C23.4692 36.2062 23.4525 35.7687 23.5182 35.3239C23.567 34.9951 23.5566 34.6609 23.3443 34.3931C23.1085 34.0957 22.998 33.7711 22.9851 33.4016L22.9543 33.261C22.8771 32.9957 22.7213 32.892 22.4456 32.926C22.2001 32.9579 21.9905 33.0608 21.8166 33.2419C21.7559 33.3058 21.6717 33.3719 21.5895 33.3847C21.1586 33.452 21.0259 33.6049 21.1697 34.0037C21.3244 34.4359 21.3626 34.8645 21.2979 35.311C21.2877 35.3815 21.2971 35.4542 21.2976 35.5266C21.2998 35.7908 21.3819 35.9985 21.6728 36.0603C21.8578 36.0996 21.9296 36.2407 21.9353 36.403C21.9402 36.5559 21.9106 36.7111 21.8853 36.8633C21.8427 37.1234 21.776 37.3798 21.7475 37.6403C21.7016 38.069 21.8231 38.4265 22.2427 38.6248C22.4068 38.7025 22.5104 38.8285 22.541 39.0051C22.6023 39.3582 22.6786 39.7103 22.7062 40.0663C22.7259 40.3096 22.7323 40.5495 22.8856 40.7483C23.0254 40.9288 23.0857 41.1304 23.0828 41.3509C23.0798 41.6213 23.1842 41.8403 23.3734 42.0225C23.5447 42.1866 23.6379 42.3882 23.6818 42.619C23.7238 42.8305 23.7736 43.041 23.8198 43.2522L23.8101 43.2543C23.864 43.5004 23.9104 43.749 23.9742 43.9932C24.0513 44.2885 24.1801 44.5593 24.4441 44.7353C24.7361 44.9294 25.0141 44.8383 25.1336 44.5117C25.1645 44.4229 25.1893 44.3214 25.1793 44.2297C25.1499 43.9453 25.1356 43.6522 25.0548 43.3804C24.8614 42.7219 24.7882 42.0667 24.9793 41.3958C25.0124 41.2831 25.0026 41.1583 25.0198 41.0394C25.0949 40.5437 24.9444 40.117 24.6244 39.7422L24.578 39.687C24.4135 39.4841 24.3699 39.265 24.4612 39.0134C24.5346 38.8111 24.5761 38.596 24.656 38.396C24.8378 37.9464 24.6891 37.4483 24.1012 37.2568C23.7749 37.1508 23.6524 36.9386 23.579 36.644Z" fill="black"/>
<path d="M21.1244 31.8864C21.4472 32.0502 21.7841 32.0616 22.0855 31.8709C22.3966 31.6744 22.4972 31.3548 22.4454 30.9917C22.3759 30.5041 22.3413 30.0191 22.3537 29.5245C22.3667 28.9924 21.9909 28.747 21.4452 28.9487C21.4382 28.7729 21.4395 28.6319 21.425 28.4921C21.3855 28.0771 21.0054 27.7661 20.661 27.884C20.3983 27.9738 20.1693 28.1281 20.0245 28.3827C19.8629 28.6673 19.8695 29.055 20.1034 29.2838C20.3123 29.4859 20.3078 29.6854 20.2369 29.9334C20.1642 30.1861 20.0996 30.4458 20.0782 30.7056C20.0507 31.0584 20.1634 31.3723 20.4929 31.5596C20.6993 31.6761 20.9135 31.7793 21.1244 31.8864Z" fill="black"/>
</g>
<defs>
<clipPath id="clip0">
<rect width="114.49" height="33.6066" fill="white" transform="translate(1.5293 24.8633) rotate(-12.3558)"/>
</clipPath>
</defs>
</svg>
